<svg width="2368" height="64" viewBox="0 0 2368 64" fill="none" xmlns="http://www.w3.org/2000/svg">
<rect x="64" width="64" height="64" fill="#414141"/>
<rect x="128" width="64" height="64" fill="#D64949"/>
<rect x="192" width="64" height="64" fill="#414141"/>
<rect x="256" width="64" height="64" fill="#D64949"/>
<rect x="320" width="64" height="64" fill="#414141"/>
<rect x="384" width="64" height="64" fill="#D64949"/>
<rect x="448" width="64" height="64" fill="#414141"/>
<rect x="512" width="64" height="64" fill="#D64949"/>
<rect x="576" width="64" height="64" fill="#414141"/>
<rect x="640" width="64" height="64" fill="#D64949"/>
<rect x="704" width="64" height="64" fill="#414141"/>
<rect x="768" width="64" height="64" fill="#D64949"/>
<rect x="832" width="64" height="64" fill="#414141"/>
<rect x="896" width="64" height="64" fill="#D64949"/>
<rect x="960" width="64" height="64" fill="#414141"/>
<rect x="1024" width="64" height="64" fill="#D64949"/>
<rect x="1088" width="64" height="64" fill="#414141"/>
<rect x="1152" width="64" height="64" fill="#D64949"/>
<rect x="1216" width="64" height="64" fill="#414141"/>
<rect x="1280" width="64" height="64" fill="#D64949"/>
<rect x="1344" width="64" height="64" fill="#414141"/>
<rect x="1408" width="64" height="64" fill="#D64949"/>
<rect x="1472" width="64" height="64" fill="#414141"/>
<rect x="1536" width="64" height="64" fill="#D64949"/>
<rect x="1600" width="64" height="64" fill="#414141"/>
<rect x="1664" width="64" height="64" fill="#D64949"/>
<rect x="1728" width="64" height="64" fill="#414141"/>
<rect x="1792" width="64" height="64" fill="#D64949"/>
<rect x="1856" width="64" height="64" fill="#414141"/>
<rect x="1920" width="64" height="64" fill="#D64949"/>
<rect x="1984" width="64" height="64" fill="#414141"/>
<rect x="2048" width="64" height="64" fill="#D64949"/>
<rect x="2112" width="64" height="64" fill="#414141"/>
<rect x="2176" width="64" height="64" fill="#D64949"/>
<rect x="2240" width="64" height="64" fill="#414141"/>
<rect x="2304" width="64" height="64" fill="#D64949"/>
<rect width="64" height="64" fill="#39B855"/>
<path d="M80.208 46.616C80.208 47.192 80.088 47.752 79.848 48.296C79.624 48.824 79.32 49.352 78.936 49.88C78.552 50.392 78.12 50.904 77.64 51.416C77.16 51.912 76.68 52.4 76.2 52.88C75.928 53.152 75.608 53.472 75.24 53.84C74.888 54.208 74.552 54.592 74.232 54.992C73.912 55.392 73.64 55.776 73.416 56.144C73.208 56.512 73.104 56.832 73.104 57.104H80.76V59H70.68C70.664 58.904 70.656 58.808 70.656 58.712C70.656 58.616 70.656 58.528 70.656 58.448C70.656 57.696 70.776 57 71.016 56.36C71.272 55.704 71.6 55.088 72 54.512C72.4 53.936 72.848 53.392 73.344 52.88C73.84 52.368 74.328 51.872 74.808 51.392C75.208 51.008 75.584 50.632 75.936 50.264C76.304 49.88 76.624 49.504 76.896 49.136C77.184 48.752 77.408 48.36 77.568 47.96C77.744 47.56 77.832 47.136 77.832 46.688C77.832 46.208 77.752 45.8 77.592 45.464C77.448 45.128 77.248 44.848 76.992 44.624C76.736 44.4 76.432 44.24 76.08 44.144C75.744 44.032 75.384 43.976 75 43.976C74.536 43.976 74.112 44.04 73.728 44.168C73.344 44.296 73 44.448 72.696 44.624C72.392 44.784 72.136 44.96 71.928 45.152C71.72 45.328 71.56 45.464 71.448 45.56L70.344 43.976C70.488 43.816 70.704 43.624 70.992 43.4C71.28 43.16 71.624 42.936 72.024 42.728C72.424 42.52 72.872 42.344 73.368 42.2C73.864 42.056 74.4 41.984 74.976 41.984C76.72 41.984 78.024 42.392 78.888 43.208C79.768 44.008 80.208 45.144 80.208 46.616ZM84.0589 52.328C84.0589 50.712 84.2829 49.288 84.7309 48.056C85.1789 46.808 85.8109 45.76 86.6269 44.912C87.4589 44.064 88.4589 43.424 89.6269 42.992C90.8109 42.544 92.1389 42.312 93.6109 42.296L93.7789 44.168C92.8349 44.184 91.9709 44.288 91.1869 44.48C90.4189 44.672 89.7309 44.976 89.1229 45.392C88.5149 45.808 88.0029 46.352 87.5869 47.024C87.1709 47.68 86.8589 48.496 86.6509 49.472C87.0669 49.28 87.5309 49.12 88.0429 48.992C88.5709 48.864 89.1149 48.8 89.6749 48.8C90.6189 48.8 91.4189 48.944 92.0749 49.232C92.7309 49.52 93.2669 49.904 93.6829 50.384C94.0989 50.848 94.3949 51.392 94.5709 52.016C94.7629 52.624 94.8589 53.264 94.8589 53.936C94.8589 54.544 94.7549 55.168 94.5469 55.808C94.3389 56.448 94.0189 57.032 93.5869 57.56C93.1709 58.088 92.6349 58.52 91.9789 58.856C91.3229 59.192 90.5469 59.36 89.6509 59.36C87.8269 59.36 86.4349 58.736 85.4749 57.488C84.5309 56.24 84.0589 54.52 84.0589 52.328ZM89.4349 50.624C88.8749 50.624 88.3549 50.68 87.8749 50.792C87.3949 50.888 86.9149 51.04 86.4349 51.248C86.4189 51.424 86.4029 51.608 86.3869 51.8C86.3869 51.976 86.3869 52.152 86.3869 52.328C86.3869 53.032 86.4349 53.696 86.5309 54.32C86.6269 54.944 86.7949 55.496 87.0349 55.976C87.2909 56.44 87.6269 56.816 88.0429 57.104C88.4589 57.376 88.9869 57.512 89.6269 57.512C90.1549 57.512 90.6029 57.4 90.9709 57.176C91.3389 56.952 91.6429 56.664 91.8829 56.312C92.1229 55.96 92.2909 55.584 92.3869 55.184C92.4989 54.768 92.5549 54.368 92.5549 53.984C92.5549 52.896 92.2909 52.064 91.7629 51.488C91.2509 50.912 90.4749 50.624 89.4349 50.624Z" fill="white"/>
<path d="M6.2 50.672C6.2 47.888 6.688 45.744 7.664 44.24C8.656 42.736 10.024 41.984 11.768 41.984C13.512 41.984 14.872 42.736 15.848 44.24C16.84 45.744 17.336 47.888 17.336 50.672C17.336 53.456 16.84 55.6 15.848 57.104C14.872 58.608 13.512 59.36 11.768 59.36C10.024 59.36 8.656 58.608 7.664 57.104C6.688 55.6 6.2 53.456 6.2 50.672ZM14.984 50.672C14.984 49.76 14.928 48.896 14.816 48.08C14.72 47.264 14.544 46.552 14.288 45.944C14.048 45.336 13.72 44.856 13.304 44.504C12.888 44.136 12.376 43.952 11.768 43.952C11.16 43.952 10.648 44.136 10.232 44.504C9.816 44.856 9.48 45.336 9.224 45.944C8.984 46.552 8.808 47.264 8.696 48.08C8.6 48.896 8.552 49.76 8.552 50.672C8.552 51.584 8.6 52.448 8.696 53.264C8.808 54.08 8.984 54.792 9.224 55.4C9.48 56.008 9.816 56.496 10.232 56.864C10.648 57.216 11.16 57.392 11.768 57.392C12.376 57.392 12.888 57.216 13.304 56.864C13.72 56.496 14.048 56.008 14.288 55.4C14.544 54.792 14.72 54.08 14.816 53.264C14.928 52.448 14.984 51.584 14.984 50.672Z" fill="white"/>
<path d="M202.424 57.368C203.848 57.368 204.864 57.088 205.472 56.528C206.096 55.968 206.408 55.216 206.408 54.272C206.408 53.664 206.28 53.152 206.024 52.736C205.768 52.32 205.432 51.992 205.016 51.752C204.6 51.496 204.112 51.32 203.552 51.224C203.008 51.112 202.448 51.056 201.872 51.056H201.296V49.232H202.088C202.488 49.232 202.896 49.192 203.312 49.112C203.744 49.032 204.136 48.888 204.488 48.68C204.84 48.472 205.128 48.192 205.352 47.84C205.576 47.472 205.688 47.016 205.688 46.472C205.688 46.024 205.608 45.64 205.448 45.32C205.288 45 205.072 44.736 204.8 44.528C204.544 44.32 204.24 44.176 203.888 44.096C203.552 44 203.192 43.952 202.808 43.952C202.04 43.952 201.384 44.064 200.84 44.288C200.312 44.512 199.864 44.744 199.496 44.984L198.632 43.28C198.824 43.152 199.064 43.016 199.352 42.872C199.656 42.712 199.992 42.568 200.36 42.44C200.728 42.312 201.12 42.208 201.536 42.128C201.968 42.032 202.416 41.984 202.88 41.984C203.76 41.984 204.52 42.096 205.16 42.32C205.8 42.528 206.328 42.832 206.744 43.232C207.16 43.616 207.472 44.08 207.68 44.624C207.888 45.152 207.992 45.728 207.992 46.352C207.992 47.216 207.744 47.96 207.248 48.584C206.752 49.192 206.152 49.656 205.448 49.976C205.88 50.104 206.296 50.288 206.696 50.528C207.096 50.768 207.44 51.072 207.728 51.44C208.032 51.808 208.272 52.232 208.448 52.712C208.64 53.192 208.736 53.728 208.736 54.32C208.736 55.04 208.608 55.712 208.352 56.336C208.112 56.944 207.728 57.472 207.2 57.92C206.688 58.368 206.04 58.72 205.256 58.976C204.472 59.232 203.544 59.36 202.472 59.36C202.056 59.36 201.624 59.328 201.176 59.264C200.744 59.2 200.336 59.12 199.952 59.024C199.568 58.928 199.232 58.832 198.944 58.736C198.656 58.64 198.448 58.56 198.32 58.496L198.752 56.552C199.024 56.68 199.472 56.848 200.096 57.056C200.736 57.264 201.512 57.368 202.424 57.368ZM215.323 48.776C217.739 48.872 219.507 49.4 220.627 50.36C221.763 51.32 222.331 52.624 222.331 54.272C222.331 55.008 222.203 55.688 221.947 56.312C221.707 56.936 221.331 57.472 220.819 57.92C220.323 58.368 219.691 58.72 218.923 58.976C218.155 59.232 217.243 59.36 216.187 59.36C215.771 59.36 215.347 59.328 214.915 59.264C214.483 59.2 214.083 59.12 213.715 59.024C213.347 58.928 213.019 58.832 212.731 58.736C212.443 58.64 212.235 58.56 212.107 58.496L212.539 56.552C212.811 56.68 213.251 56.848 213.859 57.056C214.483 57.264 215.243 57.368 216.139 57.368C216.859 57.368 217.459 57.288 217.939 57.128C218.435 56.968 218.835 56.752 219.139 56.48C219.443 56.208 219.659 55.896 219.787 55.544C219.931 55.176 220.003 54.792 220.003 54.392C220.003 53.784 219.899 53.248 219.691 52.784C219.483 52.304 219.115 51.904 218.587 51.584C218.059 51.264 217.355 51.024 216.475 50.864C215.595 50.688 214.483 50.6 213.139 50.6C213.235 49.816 213.307 49.08 213.355 48.392C213.419 47.704 213.475 47.032 213.523 46.376C213.571 45.72 213.611 45.072 213.643 44.432C213.675 43.776 213.707 43.088 213.739 42.368H221.755V44.264H215.683C215.667 44.504 215.643 44.832 215.611 45.248C215.579 45.648 215.547 46.072 215.515 46.52C215.483 46.952 215.451 47.376 215.419 47.792C215.387 48.208 215.355 48.536 215.323 48.776Z" fill="white"/>
<path d="M138.424 57.368C139.848 57.368 140.864 57.088 141.472 56.528C142.096 55.968 142.408 55.216 142.408 54.272C142.408 53.664 142.28 53.152 142.024 52.736C141.768 52.32 141.432 51.992 141.016 51.752C140.6 51.496 140.112 51.32 139.552 51.224C139.008 51.112 138.448 51.056 137.872 51.056H137.296V49.232H138.088C138.488 49.232 138.896 49.192 139.312 49.112C139.744 49.032 140.136 48.888 140.488 48.68C140.84 48.472 141.128 48.192 141.352 47.84C141.576 47.472 141.688 47.016 141.688 46.472C141.688 46.024 141.608 45.64 141.448 45.32C141.288 45 141.072 44.736 140.8 44.528C140.544 44.32 140.24 44.176 139.888 44.096C139.552 44 139.192 43.952 138.808 43.952C138.04 43.952 137.384 44.064 136.84 44.288C136.312 44.512 135.864 44.744 135.496 44.984L134.632 43.28C134.824 43.152 135.064 43.016 135.352 42.872C135.656 42.712 135.992 42.568 136.36 42.44C136.728 42.312 137.12 42.208 137.536 42.128C137.968 42.032 138.416 41.984 138.88 41.984C139.76 41.984 140.52 42.096 141.16 42.32C141.8 42.528 142.328 42.832 142.744 43.232C143.16 43.616 143.472 44.08 143.68 44.624C143.888 45.152 143.992 45.728 143.992 46.352C143.992 47.216 143.744 47.96 143.248 48.584C142.752 49.192 142.152 49.656 141.448 49.976C141.88 50.104 142.296 50.288 142.696 50.528C143.096 50.768 143.44 51.072 143.728 51.44C144.032 51.808 144.272 52.232 144.448 52.712C144.64 53.192 144.736 53.728 144.736 54.32C144.736 55.04 144.608 55.712 144.352 56.336C144.112 56.944 143.728 57.472 143.2 57.92C142.688 58.368 142.04 58.72 141.256 58.976C140.472 59.232 139.544 59.36 138.472 59.36C138.056 59.36 137.624 59.328 137.176 59.264C136.744 59.2 136.336 59.12 135.952 59.024C135.568 58.928 135.232 58.832 134.944 58.736C134.656 58.64 134.448 58.56 134.32 58.496L134.752 56.552C135.024 56.68 135.472 56.848 136.096 57.056C136.736 57.264 137.512 57.368 138.424 57.368Z" fill="white"/>
<path d="M336.208 46.616C336.208 47.192 336.088 47.752 335.848 48.296C335.624 48.824 335.32 49.352 334.936 49.88C334.552 50.392 334.12 50.904 333.64 51.416C333.16 51.912 332.68 52.4 332.2 52.88C331.928 53.152 331.608 53.472 331.24 53.84C330.888 54.208 330.552 54.592 330.232 54.992C329.912 55.392 329.64 55.776 329.416 56.144C329.208 56.512 329.104 56.832 329.104 57.104H336.76V59H326.68C326.664 58.904 326.656 58.808 326.656 58.712C326.656 58.616 326.656 58.528 326.656 58.448C326.656 57.696 326.776 57 327.016 56.36C327.272 55.704 327.6 55.088 328 54.512C328.4 53.936 328.848 53.392 329.344 52.88C329.84 52.368 330.328 51.872 330.808 51.392C331.208 51.008 331.584 50.632 331.936 50.264C332.304 49.88 332.624 49.504 332.896 49.136C333.184 48.752 333.408 48.36 333.568 47.96C333.744 47.56 333.832 47.136 333.832 46.688C333.832 46.208 333.752 45.8 333.592 45.464C333.448 45.128 333.248 44.848 332.992 44.624C332.736 44.4 332.432 44.24 332.08 44.144C331.744 44.032 331.384 43.976 331 43.976C330.536 43.976 330.112 44.04 329.728 44.168C329.344 44.296 329 44.448 328.696 44.624C328.392 44.784 328.136 44.96 327.928 45.152C327.72 45.328 327.56 45.464 327.448 45.56L326.344 43.976C326.488 43.816 326.704 43.624 326.992 43.4C327.28 43.16 327.624 42.936 328.024 42.728C328.424 42.52 328.872 42.344 329.368 42.2C329.864 42.056 330.4 41.984 330.976 41.984C332.72 41.984 334.024 42.392 334.888 43.208C335.768 44.008 336.208 45.144 336.208 46.616ZM350.763 54.68C350.763 55.352 350.643 55.976 350.403 56.552C350.179 57.112 349.835 57.608 349.371 58.04C348.923 58.456 348.355 58.776 347.667 59C346.979 59.24 346.187 59.36 345.291 59.36C344.251 59.36 343.379 59.216 342.675 58.928C341.987 58.624 341.435 58.248 341.019 57.8C340.603 57.352 340.307 56.864 340.131 56.336C339.955 55.792 339.867 55.28 339.867 54.8C339.867 54.336 339.939 53.896 340.083 53.48C340.243 53.048 340.443 52.648 340.683 52.28C340.939 51.912 341.227 51.584 341.547 51.296C341.883 50.992 342.235 50.728 342.603 50.504C341.035 49.608 340.251 48.288 340.251 46.544C340.251 45.936 340.371 45.36 340.611 44.816C340.851 44.256 341.187 43.768 341.619 43.352C342.067 42.936 342.603 42.608 343.227 42.368C343.851 42.112 344.547 41.984 345.315 41.984C346.211 41.984 346.979 42.12 347.619 42.392C348.259 42.664 348.779 43.016 349.179 43.448C349.595 43.864 349.891 44.328 350.067 44.84C350.259 45.352 350.355 45.848 350.355 46.328C350.355 46.792 350.283 47.232 350.139 47.648C350.011 48.048 349.827 48.424 349.587 48.776C349.363 49.128 349.099 49.44 348.795 49.712C348.507 49.984 348.203 50.224 347.883 50.432C349.771 51.328 350.731 52.744 350.763 54.68ZM342.123 54.824C342.123 55.112 342.171 55.416 342.267 55.736C342.379 56.04 342.563 56.328 342.819 56.6C343.075 56.856 343.403 57.072 343.803 57.248C344.203 57.424 344.707 57.512 345.315 57.512C345.859 57.512 346.331 57.432 346.731 57.272C347.147 57.112 347.483 56.912 347.739 56.672C347.995 56.416 348.187 56.128 348.315 55.808C348.443 55.488 348.507 55.16 348.507 54.824C348.507 54.312 348.411 53.864 348.219 53.48C348.027 53.096 347.747 52.76 347.379 52.472C347.027 52.184 346.595 51.944 346.083 51.752C345.587 51.544 345.019 51.368 344.379 51.224C343.659 51.624 343.099 52.12 342.699 52.712C342.315 53.304 342.123 54.008 342.123 54.824ZM348.123 46.304C348.123 46.064 348.067 45.8 347.955 45.512C347.859 45.224 347.699 44.96 347.475 44.72C347.251 44.464 346.963 44.256 346.611 44.096C346.259 43.92 345.827 43.832 345.315 43.832C344.803 43.832 344.363 43.912 343.995 44.072C343.643 44.232 343.355 44.44 343.131 44.696C342.907 44.936 342.739 45.208 342.627 45.512C342.531 45.8 342.483 46.088 342.483 46.376C342.483 46.728 342.547 47.08 342.675 47.432C342.803 47.784 343.003 48.112 343.275 48.416C343.547 48.72 343.899 48.992 344.331 49.232C344.779 49.472 345.307 49.664 345.915 49.808C346.587 49.408 347.123 48.944 347.523 48.416C347.923 47.872 348.123 47.168 348.123 46.304Z" fill="white"/>
<path d="M263.232 45.8C264.144 45.448 265.032 45 265.896 44.456C266.76 43.896 267.552 43.2 268.272 42.368H269.856V59H267.624V45.464C267.432 45.64 267.192 45.824 266.904 46.016C266.632 46.208 266.328 46.392 265.992 46.568C265.672 46.744 265.328 46.912 264.96 47.072C264.608 47.232 264.264 47.368 263.928 47.48L263.232 45.8ZM285.755 46.616C285.755 47.192 285.635 47.752 285.395 48.296C285.171 48.824 284.867 49.352 284.483 49.88C284.099 50.392 283.667 50.904 283.187 51.416C282.707 51.912 282.227 52.4 281.747 52.88C281.475 53.152 281.155 53.472 280.787 53.84C280.435 54.208 280.099 54.592 279.779 54.992C279.459 55.392 279.187 55.776 278.963 56.144C278.755 56.512 278.651 56.832 278.651 57.104H286.307V59H276.227C276.211 58.904 276.203 58.808 276.203 58.712C276.203 58.616 276.203 58.528 276.203 58.448C276.203 57.696 276.323 57 276.563 56.36C276.819 55.704 277.147 55.088 277.547 54.512C277.947 53.936 278.395 53.392 278.891 52.88C279.387 52.368 279.875 51.872 280.355 51.392C280.755 51.008 281.131 50.632 281.483 50.264C281.851 49.88 282.171 49.504 282.443 49.136C282.731 48.752 282.955 48.36 283.115 47.96C283.291 47.56 283.379 47.136 283.379 46.688C283.379 46.208 283.299 45.8 283.139 45.464C282.995 45.128 282.795 44.848 282.539 44.624C282.283 44.4 281.979 44.24 281.627 44.144C281.291 44.032 280.931 43.976 280.547 43.976C280.083 43.976 279.659 44.04 279.275 44.168C278.891 44.296 278.547 44.448 278.243 44.624C277.939 44.784 277.683 44.96 277.475 45.152C277.267 45.328 277.107 45.464 276.995 45.56L275.891 43.976C276.035 43.816 276.251 43.624 276.539 43.4C276.827 43.16 277.171 42.936 277.571 42.728C277.971 42.52 278.419 42.344 278.915 42.2C279.411 42.056 279.947 41.984 280.523 41.984C282.267 41.984 283.571 42.392 284.435 43.208C285.315 44.008 285.755 45.144 285.755 46.616Z" fill="white"/>
<path d="M464.208 46.616C464.208 47.192 464.088 47.752 463.848 48.296C463.624 48.824 463.32 49.352 462.936 49.88C462.552 50.392 462.12 50.904 461.64 51.416C461.16 51.912 460.68 52.4 460.2 52.88C459.928 53.152 459.608 53.472 459.24 53.84C458.888 54.208 458.552 54.592 458.232 54.992C457.912 55.392 457.64 55.776 457.416 56.144C457.208 56.512 457.104 56.832 457.104 57.104H464.76V59H454.68C454.664 58.904 454.656 58.808 454.656 58.712C454.656 58.616 454.656 58.528 454.656 58.448C454.656 57.696 454.776 57 455.016 56.36C455.272 55.704 455.6 55.088 456 54.512C456.4 53.936 456.848 53.392 457.344 52.88C457.84 52.368 458.328 51.872 458.808 51.392C459.208 51.008 459.584 50.632 459.936 50.264C460.304 49.88 460.624 49.504 460.896 49.136C461.184 48.752 461.408 48.36 461.568 47.96C461.744 47.56 461.832 47.136 461.832 46.688C461.832 46.208 461.752 45.8 461.592 45.464C461.448 45.128 461.248 44.848 460.992 44.624C460.736 44.4 460.432 44.24 460.08 44.144C459.744 44.032 459.384 43.976 459 43.976C458.536 43.976 458.112 44.04 457.728 44.168C457.344 44.296 457 44.448 456.696 44.624C456.392 44.784 456.136 44.96 455.928 45.152C455.72 45.328 455.56 45.464 455.448 45.56L454.344 43.976C454.488 43.816 454.704 43.624 454.992 43.4C455.28 43.16 455.624 42.936 456.024 42.728C456.424 42.52 456.872 42.344 457.368 42.2C457.864 42.056 458.4 41.984 458.976 41.984C460.72 41.984 462.024 42.392 462.888 43.208C463.768 44.008 464.208 45.144 464.208 46.616ZM478.571 49.016C478.571 52.312 477.747 54.808 476.099 56.504C474.467 58.184 472.035 59.032 468.803 59.048L468.731 57.176C469.739 57.176 470.643 57.08 471.443 56.888C472.259 56.696 472.971 56.392 473.579 55.976C474.187 55.544 474.691 54.992 475.091 54.32C475.507 53.648 475.811 52.824 476.003 51.848C475.587 52.04 475.115 52.2 474.587 52.328C474.059 52.44 473.515 52.496 472.955 52.496C472.011 52.496 471.211 52.36 470.555 52.088C469.899 51.8 469.363 51.424 468.947 50.96C468.531 50.48 468.227 49.936 468.035 49.328C467.859 48.704 467.771 48.056 467.771 47.384C467.771 46.792 467.875 46.176 468.083 45.536C468.291 44.896 468.603 44.312 469.019 43.784C469.451 43.256 469.995 42.824 470.651 42.488C471.307 42.152 472.083 41.984 472.979 41.984C473.891 41.984 474.691 42.144 475.379 42.464C476.083 42.784 476.667 43.248 477.131 43.856C477.611 44.464 477.971 45.208 478.211 46.088C478.451 46.952 478.571 47.928 478.571 49.016ZM473.195 50.672C473.755 50.672 474.283 50.624 474.779 50.528C475.275 50.416 475.755 50.256 476.219 50.048C476.235 49.872 476.243 49.704 476.243 49.544C476.243 49.368 476.243 49.192 476.243 49.016C476.243 48.328 476.195 47.672 476.099 47.048C476.003 46.408 475.827 45.856 475.571 45.392C475.331 44.912 475.003 44.536 474.587 44.264C474.171 43.976 473.643 43.832 473.003 43.832C472.475 43.832 472.027 43.944 471.659 44.168C471.291 44.392 470.987 44.68 470.747 45.032C470.507 45.368 470.331 45.744 470.219 46.16C470.123 46.56 470.075 46.952 470.075 47.336C470.075 48.424 470.331 49.256 470.843 49.832C471.371 50.392 472.155 50.672 473.195 50.672Z" fill="white"/>
<path d="M392.912 59C393.008 57.72 393.232 56.376 393.584 54.968C393.952 53.544 394.4 52.168 394.928 50.84C395.456 49.496 396.032 48.256 396.656 47.12C397.296 45.968 397.92 45.032 398.528 44.312H390.44V42.368H401.024V44.216C400.496 44.824 399.912 45.664 399.272 46.736C398.632 47.792 398.024 48.984 397.448 50.312C396.888 51.624 396.4 53.032 395.984 54.536C395.584 56.024 395.336 57.512 395.24 59H392.912Z" fill="white"/>
<path d="M592.208 46.616C592.208 47.192 592.088 47.752 591.848 48.296C591.624 48.824 591.32 49.352 590.936 49.88C590.552 50.392 590.12 50.904 589.64 51.416C589.16 51.912 588.68 52.4 588.2 52.88C587.928 53.152 587.608 53.472 587.24 53.84C586.888 54.208 586.552 54.592 586.232 54.992C585.912 55.392 585.64 55.776 585.416 56.144C585.208 56.512 585.104 56.832 585.104 57.104H592.76V59H582.68C582.664 58.904 582.656 58.808 582.656 58.712C582.656 58.616 582.656 58.528 582.656 58.448C582.656 57.696 582.776 57 583.016 56.36C583.272 55.704 583.6 55.088 584 54.512C584.4 53.936 584.848 53.392 585.344 52.88C585.84 52.368 586.328 51.872 586.808 51.392C587.208 51.008 587.584 50.632 587.936 50.264C588.304 49.88 588.624 49.504 588.896 49.136C589.184 48.752 589.408 48.36 589.568 47.96C589.744 47.56 589.832 47.136 589.832 46.688C589.832 46.208 589.752 45.8 589.592 45.464C589.448 45.128 589.248 44.848 588.992 44.624C588.736 44.4 588.432 44.24 588.08 44.144C587.744 44.032 587.384 43.976 587 43.976C586.536 43.976 586.112 44.04 585.728 44.168C585.344 44.296 585 44.448 584.696 44.624C584.392 44.784 584.136 44.96 583.928 45.152C583.72 45.328 583.56 45.464 583.448 45.56L582.344 43.976C582.488 43.816 582.704 43.624 582.992 43.4C583.28 43.16 583.624 42.936 584.024 42.728C584.424 42.52 584.872 42.344 585.368 42.2C585.864 42.056 586.4 41.984 586.976 41.984C588.72 41.984 590.024 42.392 590.888 43.208C591.768 44.008 592.208 45.144 592.208 46.616ZM605.755 46.616C605.755 47.192 605.635 47.752 605.395 48.296C605.171 48.824 604.867 49.352 604.483 49.88C604.099 50.392 603.667 50.904 603.187 51.416C602.707 51.912 602.227 52.4 601.747 52.88C601.475 53.152 601.155 53.472 600.787 53.84C600.435 54.208 600.099 54.592 599.779 54.992C599.459 55.392 599.187 55.776 598.963 56.144C598.755 56.512 598.651 56.832 598.651 57.104H606.307V59H596.227C596.211 58.904 596.203 58.808 596.203 58.712C596.203 58.616 596.203 58.528 596.203 58.448C596.203 57.696 596.323 57 596.563 56.36C596.819 55.704 597.147 55.088 597.547 54.512C597.947 53.936 598.395 53.392 598.891 52.88C599.387 52.368 599.875 51.872 600.355 51.392C600.755 51.008 601.131 50.632 601.483 50.264C601.851 49.88 602.171 49.504 602.443 49.136C602.731 48.752 602.955 48.36 603.115 47.96C603.291 47.56 603.379 47.136 603.379 46.688C603.379 46.208 603.299 45.8 603.139 45.464C602.995 45.128 602.795 44.848 602.539 44.624C602.283 44.4 601.979 44.24 601.627 44.144C601.291 44.032 600.931 43.976 600.547 43.976C600.083 43.976 599.659 44.04 599.275 44.168C598.891 44.296 598.547 44.448 598.243 44.624C597.939 44.784 597.683 44.96 597.475 45.152C597.267 45.328 597.107 45.464 596.995 45.56L595.891 43.976C596.035 43.816 596.251 43.624 596.539 43.4C596.827 43.16 597.171 42.936 597.571 42.728C597.971 42.52 598.419 42.344 598.915 42.2C599.411 42.056 599.947 41.984 600.523 41.984C602.267 41.984 603.571 42.392 604.435 43.208C605.315 44.008 605.755 45.144 605.755 46.616Z" fill="white"/>
<path d="M519.232 45.8C520.144 45.448 521.032 45 521.896 44.456C522.76 43.896 523.552 43.2 524.272 42.368H525.856V59H523.624V45.464C523.432 45.64 523.192 45.824 522.904 46.016C522.632 46.208 522.328 46.392 521.992 46.568C521.672 46.744 521.328 46.912 520.96 47.072C520.608 47.232 520.264 47.368 519.928 47.48L519.232 45.8ZM542.763 54.68C542.763 55.352 542.643 55.976 542.403 56.552C542.179 57.112 541.835 57.608 541.371 58.04C540.923 58.456 540.355 58.776 539.667 59C538.979 59.24 538.187 59.36 537.291 59.36C536.251 59.36 535.379 59.216 534.675 58.928C533.987 58.624 533.435 58.248 533.019 57.8C532.603 57.352 532.307 56.864 532.131 56.336C531.955 55.792 531.867 55.28 531.867 54.8C531.867 54.336 531.939 53.896 532.083 53.48C532.243 53.048 532.443 52.648 532.683 52.28C532.939 51.912 533.227 51.584 533.547 51.296C533.883 50.992 534.235 50.728 534.603 50.504C533.035 49.608 532.251 48.288 532.251 46.544C532.251 45.936 532.371 45.36 532.611 44.816C532.851 44.256 533.187 43.768 533.619 43.352C534.067 42.936 534.603 42.608 535.227 42.368C535.851 42.112 536.547 41.984 537.315 41.984C538.211 41.984 538.979 42.12 539.619 42.392C540.259 42.664 540.779 43.016 541.179 43.448C541.595 43.864 541.891 44.328 542.067 44.84C542.259 45.352 542.355 45.848 542.355 46.328C542.355 46.792 542.283 47.232 542.139 47.648C542.011 48.048 541.827 48.424 541.587 48.776C541.363 49.128 541.099 49.44 540.795 49.712C540.507 49.984 540.203 50.224 539.883 50.432C541.771 51.328 542.731 52.744 542.763 54.68ZM534.123 54.824C534.123 55.112 534.171 55.416 534.267 55.736C534.379 56.04 534.563 56.328 534.819 56.6C535.075 56.856 535.403 57.072 535.803 57.248C536.203 57.424 536.707 57.512 537.315 57.512C537.859 57.512 538.331 57.432 538.731 57.272C539.147 57.112 539.483 56.912 539.739 56.672C539.995 56.416 540.187 56.128 540.315 55.808C540.443 55.488 540.507 55.16 540.507 54.824C540.507 54.312 540.411 53.864 540.219 53.48C540.027 53.096 539.747 52.76 539.379 52.472C539.027 52.184 538.595 51.944 538.083 51.752C537.587 51.544 537.019 51.368 536.379 51.224C535.659 51.624 535.099 52.12 534.699 52.712C534.315 53.304 534.123 54.008 534.123 54.824ZM540.123 46.304C540.123 46.064 540.067 45.8 539.955 45.512C539.859 45.224 539.699 44.96 539.475 44.72C539.251 44.464 538.963 44.256 538.611 44.096C538.259 43.92 537.827 43.832 537.315 43.832C536.803 43.832 536.363 43.912 535.995 44.072C535.643 44.232 535.355 44.44 535.131 44.696C534.907 44.936 534.739 45.208 534.627 45.512C534.531 45.8 534.483 46.088 534.483 46.376C534.483 46.728 534.547 47.08 534.675 47.432C534.803 47.784 535.003 48.112 535.275 48.416C535.547 48.72 535.899 48.992 536.331 49.232C536.779 49.472 537.307 49.664 537.915 49.808C538.587 49.408 539.123 48.944 539.523 48.416C539.923 47.872 540.123 47.168 540.123 46.304Z" fill="white"/>
<path d="M714.424 57.368C715.848 57.368 716.864 57.088 717.472 56.528C718.096 55.968 718.408 55.216 718.408 54.272C718.408 53.664 718.28 53.152 718.024 52.736C717.768 52.32 717.432 51.992 717.016 51.752C716.6 51.496 716.112 51.32 715.552 51.224C715.008 51.112 714.448 51.056 713.872 51.056H713.296V49.232H714.088C714.488 49.232 714.896 49.192 715.312 49.112C715.744 49.032 716.136 48.888 716.488 48.68C716.84 48.472 717.128 48.192 717.352 47.84C717.576 47.472 717.688 47.016 717.688 46.472C717.688 46.024 717.608 45.64 717.448 45.32C717.288 45 717.072 44.736 716.8 44.528C716.544 44.32 716.24 44.176 715.888 44.096C715.552 44 715.192 43.952 714.808 43.952C714.04 43.952 713.384 44.064 712.84 44.288C712.312 44.512 711.864 44.744 711.496 44.984L710.632 43.28C710.824 43.152 711.064 43.016 711.352 42.872C711.656 42.712 711.992 42.568 712.36 42.44C712.728 42.312 713.12 42.208 713.536 42.128C713.968 42.032 714.416 41.984 714.88 41.984C715.76 41.984 716.52 42.096 717.16 42.32C717.8 42.528 718.328 42.832 718.744 43.232C719.16 43.616 719.472 44.08 719.68 44.624C719.888 45.152 719.992 45.728 719.992 46.352C719.992 47.216 719.744 47.96 719.248 48.584C718.752 49.192 718.152 49.656 717.448 49.976C717.88 50.104 718.296 50.288 718.696 50.528C719.096 50.768 719.44 51.072 719.728 51.44C720.032 51.808 720.272 52.232 720.448 52.712C720.64 53.192 720.736 53.728 720.736 54.32C720.736 55.04 720.608 55.712 720.352 56.336C720.112 56.944 719.728 57.472 719.2 57.92C718.688 58.368 718.04 58.72 717.256 58.976C716.472 59.232 715.544 59.36 714.472 59.36C714.056 59.36 713.624 59.328 713.176 59.264C712.744 59.2 712.336 59.12 711.952 59.024C711.568 58.928 711.232 58.832 710.944 58.736C710.656 58.64 710.448 58.56 710.32 58.496L710.752 56.552C711.024 56.68 711.472 56.848 712.096 57.056C712.736 57.264 713.512 57.368 714.424 57.368ZM724.779 45.8C725.691 45.448 726.579 45 727.443 44.456C728.307 43.896 729.099 43.2 729.819 42.368H731.403V59H729.171V45.464C728.979 45.64 728.739 45.824 728.451 46.016C728.179 46.208 727.875 46.392 727.539 46.568C727.219 46.744 726.875 46.912 726.507 47.072C726.155 47.232 725.811 47.368 725.475 47.48L724.779 45.8Z" fill="white"/>
<path d="M657.024 49.016C657.024 52.312 656.2 54.808 654.552 56.504C652.92 58.184 650.488 59.032 647.256 59.048L647.184 57.176C648.192 57.176 649.096 57.08 649.896 56.888C650.712 56.696 651.424 56.392 652.032 55.976C652.64 55.544 653.144 54.992 653.544 54.32C653.96 53.648 654.264 52.824 654.456 51.848C654.04 52.04 653.568 52.2 653.04 52.328C652.512 52.44 651.968 52.496 651.408 52.496C650.464 52.496 649.664 52.36 649.008 52.088C648.352 51.8 647.816 51.424 647.4 50.96C646.984 50.48 646.68 49.936 646.488 49.328C646.312 48.704 646.224 48.056 646.224 47.384C646.224 46.792 646.328 46.176 646.536 45.536C646.744 44.896 647.056 44.312 647.472 43.784C647.904 43.256 648.448 42.824 649.104 42.488C649.76 42.152 650.536 41.984 651.432 41.984C652.344 41.984 653.144 42.144 653.832 42.464C654.536 42.784 655.12 43.248 655.584 43.856C656.064 44.464 656.424 45.208 656.664 46.088C656.904 46.952 657.024 47.928 657.024 49.016ZM651.648 50.672C652.208 50.672 652.736 50.624 653.232 50.528C653.728 50.416 654.208 50.256 654.672 50.048C654.688 49.872 654.696 49.704 654.696 49.544C654.696 49.368 654.696 49.192 654.696 49.016C654.696 48.328 654.648 47.672 654.552 47.048C654.456 46.408 654.28 45.856 654.024 45.392C653.784 44.912 653.456 44.536 653.04 44.264C652.624 43.976 652.096 43.832 651.456 43.832C650.928 43.832 650.48 43.944 650.112 44.168C649.744 44.392 649.44 44.68 649.2 45.032C648.96 45.368 648.784 45.744 648.672 46.16C648.576 46.56 648.528 46.952 648.528 47.336C648.528 48.424 648.784 49.256 649.296 49.832C649.824 50.392 650.608 50.672 651.648 50.672Z" fill="white"/>
<path d="M848.208 46.616C848.208 47.192 848.088 47.752 847.848 48.296C847.624 48.824 847.32 49.352 846.936 49.88C846.552 50.392 846.12 50.904 845.64 51.416C845.16 51.912 844.68 52.4 844.2 52.88C843.928 53.152 843.608 53.472 843.24 53.84C842.888 54.208 842.552 54.592 842.232 54.992C841.912 55.392 841.64 55.776 841.416 56.144C841.208 56.512 841.104 56.832 841.104 57.104H848.76V59H838.68C838.664 58.904 838.656 58.808 838.656 58.712C838.656 58.616 838.656 58.528 838.656 58.448C838.656 57.696 838.776 57 839.016 56.36C839.272 55.704 839.6 55.088 840 54.512C840.4 53.936 840.848 53.392 841.344 52.88C841.84 52.368 842.328 51.872 842.808 51.392C843.208 51.008 843.584 50.632 843.936 50.264C844.304 49.88 844.624 49.504 844.896 49.136C845.184 48.752 845.408 48.36 845.568 47.96C845.744 47.56 845.832 47.136 845.832 46.688C845.832 46.208 845.752 45.8 845.592 45.464C845.448 45.128 845.248 44.848 844.992 44.624C844.736 44.4 844.432 44.24 844.08 44.144C843.744 44.032 843.384 43.976 843 43.976C842.536 43.976 842.112 44.04 841.728 44.168C841.344 44.296 841 44.448 840.696 44.624C840.392 44.784 840.136 44.96 839.928 45.152C839.72 45.328 839.56 45.464 839.448 45.56L838.344 43.976C838.488 43.816 838.704 43.624 838.992 43.4C839.28 43.16 839.624 42.936 840.024 42.728C840.424 42.52 840.872 42.344 841.368 42.2C841.864 42.056 842.4 41.984 842.976 41.984C844.72 41.984 846.024 42.392 846.888 43.208C847.768 44.008 848.208 45.144 848.208 46.616ZM851.747 50.672C851.747 47.888 852.235 45.744 853.211 44.24C854.203 42.736 855.571 41.984 857.315 41.984C859.059 41.984 860.419 42.736 861.395 44.24C862.387 45.744 862.883 47.888 862.883 50.672C862.883 53.456 862.387 55.6 861.395 57.104C860.419 58.608 859.059 59.36 857.315 59.36C855.571 59.36 854.203 58.608 853.211 57.104C852.235 55.6 851.747 53.456 851.747 50.672ZM860.531 50.672C860.531 49.76 860.475 48.896 860.363 48.08C860.267 47.264 860.091 46.552 859.835 45.944C859.595 45.336 859.267 44.856 858.851 44.504C858.435 44.136 857.923 43.952 857.315 43.952C856.707 43.952 856.195 44.136 855.779 44.504C855.363 44.856 855.027 45.336 854.771 45.944C854.531 46.552 854.355 47.264 854.243 48.08C854.147 48.896 854.099 49.76 854.099 50.672C854.099 51.584 854.147 52.448 854.243 53.264C854.355 54.08 854.531 54.792 854.771 55.4C855.027 56.008 855.363 56.496 855.779 56.864C856.195 57.216 856.707 57.392 857.315 57.392C857.923 57.392 858.435 57.216 858.851 56.864C859.267 56.496 859.595 56.008 859.835 55.4C860.091 54.792 860.267 54.08 860.363 53.264C860.475 52.448 860.531 51.584 860.531 50.672Z" fill="white"/>
<path d="M775.232 45.8C776.144 45.448 777.032 45 777.896 44.456C778.76 43.896 779.552 43.2 780.272 42.368H781.856V59H779.624V45.464C779.432 45.64 779.192 45.824 778.904 46.016C778.632 46.208 778.328 46.392 777.992 46.568C777.672 46.744 777.328 46.912 776.96 47.072C776.608 47.232 776.264 47.368 775.928 47.48L775.232 45.8ZM787.507 53.24C787.811 52.536 788.227 51.72 788.755 50.792C789.283 49.848 789.875 48.88 790.531 47.888C791.203 46.896 791.915 45.92 792.667 44.96C793.435 44 794.203 43.136 794.971 42.368H797.107V52.928H799.075V54.752H797.107V59H794.947V54.752H787.507V53.24ZM794.947 45.008C794.467 45.52 793.979 46.096 793.483 46.736C793.003 47.36 792.531 48.016 792.067 48.704C791.603 49.392 791.163 50.096 790.747 50.816C790.347 51.536 789.987 52.24 789.667 52.928H794.947V45.008Z" fill="white"/>
<path d="M970.424 57.368C971.848 57.368 972.864 57.088 973.472 56.528C974.096 55.968 974.408 55.216 974.408 54.272C974.408 53.664 974.28 53.152 974.024 52.736C973.768 52.32 973.432 51.992 973.016 51.752C972.6 51.496 972.112 51.32 971.552 51.224C971.008 51.112 970.448 51.056 969.872 51.056H969.296V49.232H970.088C970.488 49.232 970.896 49.192 971.312 49.112C971.744 49.032 972.136 48.888 972.488 48.68C972.84 48.472 973.128 48.192 973.352 47.84C973.576 47.472 973.688 47.016 973.688 46.472C973.688 46.024 973.608 45.64 973.448 45.32C973.288 45 973.072 44.736 972.8 44.528C972.544 44.32 972.24 44.176 971.888 44.096C971.552 44 971.192 43.952 970.808 43.952C970.04 43.952 969.384 44.064 968.84 44.288C968.312 44.512 967.864 44.744 967.496 44.984L966.632 43.28C966.824 43.152 967.064 43.016 967.352 42.872C967.656 42.712 967.992 42.568 968.36 42.44C968.728 42.312 969.12 42.208 969.536 42.128C969.968 42.032 970.416 41.984 970.88 41.984C971.76 41.984 972.52 42.096 973.16 42.32C973.8 42.528 974.328 42.832 974.744 43.232C975.16 43.616 975.472 44.08 975.68 44.624C975.888 45.152 975.992 45.728 975.992 46.352C975.992 47.216 975.744 47.96 975.248 48.584C974.752 49.192 974.152 49.656 973.448 49.976C973.88 50.104 974.296 50.288 974.696 50.528C975.096 50.768 975.44 51.072 975.728 51.44C976.032 51.808 976.272 52.232 976.448 52.712C976.64 53.192 976.736 53.728 976.736 54.32C976.736 55.04 976.608 55.712 976.352 56.336C976.112 56.944 975.728 57.472 975.2 57.92C974.688 58.368 974.04 58.72 973.256 58.976C972.472 59.232 971.544 59.36 970.472 59.36C970.056 59.36 969.624 59.328 969.176 59.264C968.744 59.2 968.336 59.12 967.952 59.024C967.568 58.928 967.232 58.832 966.944 58.736C966.656 58.64 966.448 58.56 966.32 58.496L966.752 56.552C967.024 56.68 967.472 56.848 968.096 57.056C968.736 57.264 969.512 57.368 970.424 57.368ZM983.971 57.368C985.395 57.368 986.411 57.088 987.019 56.528C987.643 55.968 987.955 55.216 987.955 54.272C987.955 53.664 987.827 53.152 987.571 52.736C987.315 52.32 986.979 51.992 986.563 51.752C986.147 51.496 985.659 51.32 985.099 51.224C984.555 51.112 983.995 51.056 983.419 51.056H982.843V49.232H983.635C984.035 49.232 984.443 49.192 984.859 49.112C985.291 49.032 985.683 48.888 986.035 48.68C986.387 48.472 986.675 48.192 986.899 47.84C987.123 47.472 987.235 47.016 987.235 46.472C987.235 46.024 987.155 45.64 986.995 45.32C986.835 45 986.619 44.736 986.347 44.528C986.091 44.32 985.787 44.176 985.435 44.096C985.099 44 984.739 43.952 984.355 43.952C983.587 43.952 982.931 44.064 982.387 44.288C981.859 44.512 981.411 44.744 981.043 44.984L980.179 43.28C980.371 43.152 980.611 43.016 980.899 42.872C981.203 42.712 981.539 42.568 981.907 42.44C982.275 42.312 982.667 42.208 983.083 42.128C983.515 42.032 983.963 41.984 984.427 41.984C985.307 41.984 986.067 42.096 986.707 42.32C987.347 42.528 987.875 42.832 988.291 43.232C988.707 43.616 989.019 44.08 989.227 44.624C989.435 45.152 989.539 45.728 989.539 46.352C989.539 47.216 989.291 47.96 988.795 48.584C988.299 49.192 987.699 49.656 986.995 49.976C987.427 50.104 987.843 50.288 988.243 50.528C988.643 50.768 988.987 51.072 989.275 51.44C989.579 51.808 989.819 52.232 989.995 52.712C990.187 53.192 990.283 53.728 990.283 54.32C990.283 55.04 990.155 55.712 989.899 56.336C989.659 56.944 989.275 57.472 988.747 57.92C988.235 58.368 987.587 58.72 986.803 58.976C986.019 59.232 985.091 59.36 984.019 59.36C983.603 59.36 983.171 59.328 982.723 59.264C982.291 59.2 981.883 59.12 981.499 59.024C981.115 58.928 980.779 58.832 980.491 58.736C980.203 58.64 979.995 58.56 979.867 58.496L980.299 56.552C980.571 56.68 981.019 56.848 981.643 57.056C982.283 57.264 983.059 57.368 983.971 57.368Z" fill="white"/>
<path d="M903.232 45.8C904.144 45.448 905.032 45 905.896 44.456C906.76 43.896 907.552 43.2 908.272 42.368H909.856V59H907.624V45.464C907.432 45.64 907.192 45.824 906.904 46.016C906.632 46.208 906.328 46.392 905.992 46.568C905.672 46.744 905.328 46.912 904.96 47.072C904.608 47.232 904.264 47.368 903.928 47.48L903.232 45.8Z" fill="white"/>
<path d="M1104.21 46.616C1104.21 47.192 1104.09 47.752 1103.85 48.296C1103.62 48.824 1103.32 49.352 1102.94 49.88C1102.55 50.392 1102.12 50.904 1101.64 51.416C1101.16 51.912 1100.68 52.4 1100.2 52.88C1099.93 53.152 1099.61 53.472 1099.24 53.84C1098.89 54.208 1098.55 54.592 1098.23 54.992C1097.91 55.392 1097.64 55.776 1097.42 56.144C1097.21 56.512 1097.1 56.832 1097.1 57.104H1104.76V59H1094.68C1094.66 58.904 1094.66 58.808 1094.66 58.712C1094.66 58.616 1094.66 58.528 1094.66 58.448C1094.66 57.696 1094.78 57 1095.02 56.36C1095.27 55.704 1095.6 55.088 1096 54.512C1096.4 53.936 1096.85 53.392 1097.34 52.88C1097.84 52.368 1098.33 51.872 1098.81 51.392C1099.21 51.008 1099.58 50.632 1099.94 50.264C1100.3 49.88 1100.62 49.504 1100.9 49.136C1101.18 48.752 1101.41 48.36 1101.57 47.96C1101.74 47.56 1101.83 47.136 1101.83 46.688C1101.83 46.208 1101.75 45.8 1101.59 45.464C1101.45 45.128 1101.25 44.848 1100.99 44.624C1100.74 44.4 1100.43 44.24 1100.08 44.144C1099.74 44.032 1099.38 43.976 1099 43.976C1098.54 43.976 1098.11 44.04 1097.73 44.168C1097.34 44.296 1097 44.448 1096.7 44.624C1096.39 44.784 1096.14 44.96 1095.93 45.152C1095.72 45.328 1095.56 45.464 1095.45 45.56L1094.34 43.976C1094.49 43.816 1094.7 43.624 1094.99 43.4C1095.28 43.16 1095.62 42.936 1096.02 42.728C1096.42 42.52 1096.87 42.344 1097.37 42.2C1097.86 42.056 1098.4 41.984 1098.98 41.984C1100.72 41.984 1102.02 42.392 1102.89 43.208C1103.77 44.008 1104.21 45.144 1104.21 46.616ZM1107.51 53.24C1107.81 52.536 1108.23 51.72 1108.75 50.792C1109.28 49.848 1109.87 48.88 1110.53 47.888C1111.2 46.896 1111.91 45.92 1112.67 44.96C1113.43 44 1114.2 43.136 1114.97 42.368H1117.11V52.928H1119.07V54.752H1117.11V59H1114.95V54.752H1107.51V53.24ZM1114.95 45.008C1114.47 45.52 1113.98 46.096 1113.48 46.736C1113 47.36 1112.53 48.016 1112.07 48.704C1111.6 49.392 1111.16 50.096 1110.75 50.816C1110.35 51.536 1109.99 52.24 1109.67 52.928H1114.95V45.008Z" fill="white"/>
<path d="M1031.23 45.8C1032.14 45.448 1033.03 45 1033.9 44.456C1034.76 43.896 1035.55 43.2 1036.27 42.368H1037.86V59H1035.62V45.464C1035.43 45.64 1035.19 45.824 1034.9 46.016C1034.63 46.208 1034.33 46.392 1033.99 46.568C1033.67 46.744 1033.33 46.912 1032.96 47.072C1032.61 47.232 1032.26 47.368 1031.93 47.48L1031.23 45.8ZM1044.06 52.328C1044.06 50.712 1044.28 49.288 1044.73 48.056C1045.18 46.808 1045.81 45.76 1046.63 44.912C1047.46 44.064 1048.46 43.424 1049.63 42.992C1050.81 42.544 1052.14 42.312 1053.61 42.296L1053.78 44.168C1052.83 44.184 1051.97 44.288 1051.19 44.48C1050.42 44.672 1049.73 44.976 1049.12 45.392C1048.51 45.808 1048 46.352 1047.59 47.024C1047.17 47.68 1046.86 48.496 1046.65 49.472C1047.07 49.28 1047.53 49.12 1048.04 48.992C1048.57 48.864 1049.11 48.8 1049.67 48.8C1050.62 48.8 1051.42 48.944 1052.07 49.232C1052.73 49.52 1053.27 49.904 1053.68 50.384C1054.1 50.848 1054.39 51.392 1054.57 52.016C1054.76 52.624 1054.86 53.264 1054.86 53.936C1054.86 54.544 1054.75 55.168 1054.55 55.808C1054.34 56.448 1054.02 57.032 1053.59 57.56C1053.17 58.088 1052.63 58.52 1051.98 58.856C1051.32 59.192 1050.55 59.36 1049.65 59.36C1047.83 59.36 1046.43 58.736 1045.47 57.488C1044.53 56.24 1044.06 54.52 1044.06 52.328ZM1049.43 50.624C1048.87 50.624 1048.35 50.68 1047.87 50.792C1047.39 50.888 1046.91 51.04 1046.43 51.248C1046.42 51.424 1046.4 51.608 1046.39 51.8C1046.39 51.976 1046.39 52.152 1046.39 52.328C1046.39 53.032 1046.43 53.696 1046.53 54.32C1046.63 54.944 1046.79 55.496 1047.03 55.976C1047.29 56.44 1047.63 56.816 1048.04 57.104C1048.46 57.376 1048.99 57.512 1049.63 57.512C1050.15 57.512 1050.6 57.4 1050.97 57.176C1051.34 56.952 1051.64 56.664 1051.88 56.312C1052.12 55.96 1052.29 55.584 1052.39 55.184C1052.5 54.768 1052.55 54.368 1052.55 53.984C1052.55 52.896 1052.29 52.064 1051.76 51.488C1051.25 50.912 1050.47 50.624 1049.43 50.624Z" fill="white"/>
<path d="M1223.23 45.8C1224.14 45.448 1225.03 45 1225.9 44.456C1226.76 43.896 1227.55 43.2 1228.27 42.368H1229.86V59H1227.62V45.464C1227.43 45.64 1227.19 45.824 1226.9 46.016C1226.63 46.208 1226.33 46.392 1225.99 46.568C1225.67 46.744 1225.33 46.912 1224.96 47.072C1224.61 47.232 1224.26 47.368 1223.93 47.48L1223.23 45.8ZM1235.75 50.672C1235.75 47.888 1236.23 45.744 1237.21 44.24C1238.2 42.736 1239.57 41.984 1241.31 41.984C1243.06 41.984 1244.42 42.736 1245.39 44.24C1246.39 45.744 1246.88 47.888 1246.88 50.672C1246.88 53.456 1246.39 55.6 1245.39 57.104C1244.42 58.608 1243.06 59.36 1241.31 59.36C1239.57 59.36 1238.2 58.608 1237.21 57.104C1236.23 55.6 1235.75 53.456 1235.75 50.672ZM1244.53 50.672C1244.53 49.76 1244.47 48.896 1244.36 48.08C1244.27 47.264 1244.09 46.552 1243.83 45.944C1243.59 45.336 1243.27 44.856 1242.85 44.504C1242.43 44.136 1241.92 43.952 1241.31 43.952C1240.71 43.952 1240.19 44.136 1239.78 44.504C1239.36 44.856 1239.03 45.336 1238.77 45.944C1238.53 46.552 1238.35 47.264 1238.24 48.08C1238.15 48.896 1238.1 49.76 1238.1 50.672C1238.1 51.584 1238.15 52.448 1238.24 53.264C1238.35 54.08 1238.53 54.792 1238.77 55.4C1239.03 56.008 1239.36 56.496 1239.78 56.864C1240.19 57.216 1240.71 57.392 1241.31 57.392C1241.92 57.392 1242.43 57.216 1242.85 56.864C1243.27 56.496 1243.59 56.008 1243.83 55.4C1244.09 54.792 1244.27 54.08 1244.36 53.264C1244.47 52.448 1244.53 51.584 1244.53 50.672Z" fill="white"/>
<path d="M1161.78 48.776C1164.19 48.872 1165.96 49.4 1167.08 50.36C1168.22 51.32 1168.78 52.624 1168.78 54.272C1168.78 55.008 1168.66 55.688 1168.4 56.312C1168.16 56.936 1167.78 57.472 1167.27 57.92C1166.78 58.368 1166.14 58.72 1165.38 58.976C1164.61 59.232 1163.7 59.36 1162.64 59.36C1162.22 59.36 1161.8 59.328 1161.37 59.264C1160.94 59.2 1160.54 59.12 1160.17 59.024C1159.8 58.928 1159.47 58.832 1159.18 58.736C1158.9 58.64 1158.69 58.56 1158.56 58.496L1158.99 56.552C1159.26 56.68 1159.7 56.848 1160.31 57.056C1160.94 57.264 1161.7 57.368 1162.59 57.368C1163.31 57.368 1163.91 57.288 1164.39 57.128C1164.89 56.968 1165.29 56.752 1165.59 56.48C1165.9 56.208 1166.11 55.896 1166.24 55.544C1166.38 55.176 1166.46 54.792 1166.46 54.392C1166.46 53.784 1166.35 53.248 1166.14 52.784C1165.94 52.304 1165.57 51.904 1165.04 51.584C1164.51 51.264 1163.81 51.024 1162.93 50.864C1162.05 50.688 1160.94 50.6 1159.59 50.6C1159.69 49.816 1159.76 49.08 1159.81 48.392C1159.87 47.704 1159.93 47.032 1159.98 46.376C1160.02 45.72 1160.06 45.072 1160.1 44.432C1160.13 43.776 1160.16 43.088 1160.19 42.368H1168.21V44.264H1162.14C1162.12 44.504 1162.1 44.832 1162.06 45.248C1162.03 45.648 1162 46.072 1161.97 46.52C1161.94 46.952 1161.9 47.376 1161.87 47.792C1161.84 48.208 1161.81 48.536 1161.78 48.776Z" fill="white"/>
<path d="M1361.22 54.68C1361.22 55.352 1361.1 55.976 1360.86 56.552C1360.63 57.112 1360.29 57.608 1359.82 58.04C1359.38 58.456 1358.81 58.776 1358.12 59C1357.43 59.24 1356.64 59.36 1355.74 59.36C1354.7 59.36 1353.83 59.216 1353.13 58.928C1352.44 58.624 1351.89 58.248 1351.47 57.8C1351.06 57.352 1350.76 56.864 1350.58 56.336C1350.41 55.792 1350.32 55.28 1350.32 54.8C1350.32 54.336 1350.39 53.896 1350.54 53.48C1350.7 53.048 1350.9 52.648 1351.14 52.28C1351.39 51.912 1351.68 51.584 1352 51.296C1352.34 50.992 1352.69 50.728 1353.06 50.504C1351.49 49.608 1350.7 48.288 1350.7 46.544C1350.7 45.936 1350.82 45.36 1351.06 44.816C1351.3 44.256 1351.64 43.768 1352.07 43.352C1352.52 42.936 1353.06 42.608 1353.68 42.368C1354.3 42.112 1355 41.984 1355.77 41.984C1356.66 41.984 1357.43 42.12 1358.07 42.392C1358.71 42.664 1359.23 43.016 1359.63 43.448C1360.05 43.864 1360.34 44.328 1360.52 44.84C1360.71 45.352 1360.81 45.848 1360.81 46.328C1360.81 46.792 1360.74 47.232 1360.59 47.648C1360.46 48.048 1360.28 48.424 1360.04 48.776C1359.82 49.128 1359.55 49.44 1359.25 49.712C1358.96 49.984 1358.66 50.224 1358.34 50.432C1360.22 51.328 1361.18 52.744 1361.22 54.68ZM1352.58 54.824C1352.58 55.112 1352.62 55.416 1352.72 55.736C1352.83 56.04 1353.02 56.328 1353.27 56.6C1353.53 56.856 1353.86 57.072 1354.26 57.248C1354.66 57.424 1355.16 57.512 1355.77 57.512C1356.31 57.512 1356.78 57.432 1357.18 57.272C1357.6 57.112 1357.94 56.912 1358.19 56.672C1358.45 56.416 1358.64 56.128 1358.77 55.808C1358.9 55.488 1358.96 55.16 1358.96 54.824C1358.96 54.312 1358.86 53.864 1358.67 53.48C1358.48 53.096 1358.2 52.76 1357.83 52.472C1357.48 52.184 1357.05 51.944 1356.54 51.752C1356.04 51.544 1355.47 51.368 1354.83 51.224C1354.11 51.624 1353.55 52.12 1353.15 52.712C1352.77 53.304 1352.58 54.008 1352.58 54.824ZM1358.58 46.304C1358.58 46.064 1358.52 45.8 1358.41 45.512C1358.31 45.224 1358.15 44.96 1357.93 44.72C1357.7 44.464 1357.42 44.256 1357.06 44.096C1356.71 43.92 1356.28 43.832 1355.77 43.832C1355.26 43.832 1354.82 43.912 1354.45 44.072C1354.1 44.232 1353.81 44.44 1353.58 44.696C1353.36 44.936 1353.19 45.208 1353.08 45.512C1352.98 45.8 1352.94 46.088 1352.94 46.376C1352.94 46.728 1353 47.08 1353.13 47.432C1353.26 47.784 1353.46 48.112 1353.73 48.416C1354 48.72 1354.35 48.992 1354.78 49.232C1355.23 49.472 1355.76 49.664 1356.37 49.808C1357.04 49.408 1357.58 48.944 1357.98 48.416C1358.38 47.872 1358.58 47.168 1358.58 46.304Z" fill="white"/>
<path d="M1296.21 46.616C1296.21 47.192 1296.09 47.752 1295.85 48.296C1295.62 48.824 1295.32 49.352 1294.94 49.88C1294.55 50.392 1294.12 50.904 1293.64 51.416C1293.16 51.912 1292.68 52.4 1292.2 52.88C1291.93 53.152 1291.61 53.472 1291.24 53.84C1290.89 54.208 1290.55 54.592 1290.23 54.992C1289.91 55.392 1289.64 55.776 1289.42 56.144C1289.21 56.512 1289.1 56.832 1289.1 57.104H1296.76V59H1286.68C1286.66 58.904 1286.66 58.808 1286.66 58.712C1286.66 58.616 1286.66 58.528 1286.66 58.448C1286.66 57.696 1286.78 57 1287.02 56.36C1287.27 55.704 1287.6 55.088 1288 54.512C1288.4 53.936 1288.85 53.392 1289.34 52.88C1289.84 52.368 1290.33 51.872 1290.81 51.392C1291.21 51.008 1291.58 50.632 1291.94 50.264C1292.3 49.88 1292.62 49.504 1292.9 49.136C1293.18 48.752 1293.41 48.36 1293.57 47.96C1293.74 47.56 1293.83 47.136 1293.83 46.688C1293.83 46.208 1293.75 45.8 1293.59 45.464C1293.45 45.128 1293.25 44.848 1292.99 44.624C1292.74 44.4 1292.43 44.24 1292.08 44.144C1291.74 44.032 1291.38 43.976 1291 43.976C1290.54 43.976 1290.11 44.04 1289.73 44.168C1289.34 44.296 1289 44.448 1288.7 44.624C1288.39 44.784 1288.14 44.96 1287.93 45.152C1287.72 45.328 1287.56 45.464 1287.45 45.56L1286.34 43.976C1286.49 43.816 1286.7 43.624 1286.99 43.4C1287.28 43.16 1287.62 42.936 1288.02 42.728C1288.42 42.52 1288.87 42.344 1289.37 42.2C1289.86 42.056 1290.4 41.984 1290.98 41.984C1292.72 41.984 1294.02 42.392 1294.89 43.208C1295.77 44.008 1296.21 45.144 1296.21 46.616ZM1303.97 57.368C1305.39 57.368 1306.41 57.088 1307.02 56.528C1307.64 55.968 1307.95 55.216 1307.95 54.272C1307.95 53.664 1307.83 53.152 1307.57 52.736C1307.31 52.32 1306.98 51.992 1306.56 51.752C1306.15 51.496 1305.66 51.32 1305.1 51.224C1304.55 51.112 1303.99 51.056 1303.42 51.056H1302.84V49.232H1303.63C1304.03 49.232 1304.44 49.192 1304.86 49.112C1305.29 49.032 1305.68 48.888 1306.03 48.68C1306.39 48.472 1306.67 48.192 1306.9 47.84C1307.12 47.472 1307.23 47.016 1307.23 46.472C1307.23 46.024 1307.15 45.64 1306.99 45.32C1306.83 45 1306.62 44.736 1306.35 44.528C1306.09 44.32 1305.79 44.176 1305.43 44.096C1305.1 44 1304.74 43.952 1304.35 43.952C1303.59 43.952 1302.93 44.064 1302.39 44.288C1301.86 44.512 1301.41 44.744 1301.04 44.984L1300.18 43.28C1300.37 43.152 1300.61 43.016 1300.9 42.872C1301.2 42.712 1301.54 42.568 1301.91 42.44C1302.27 42.312 1302.67 42.208 1303.08 42.128C1303.51 42.032 1303.96 41.984 1304.43 41.984C1305.31 41.984 1306.07 42.096 1306.71 42.32C1307.35 42.528 1307.87 42.832 1308.29 43.232C1308.71 43.616 1309.02 44.08 1309.23 44.624C1309.43 45.152 1309.54 45.728 1309.54 46.352C1309.54 47.216 1309.29 47.96 1308.79 48.584C1308.3 49.192 1307.7 49.656 1306.99 49.976C1307.43 50.104 1307.84 50.288 1308.24 50.528C1308.64 50.768 1308.99 51.072 1309.27 51.44C1309.58 51.808 1309.82 52.232 1309.99 52.712C1310.19 53.192 1310.28 53.728 1310.28 54.32C1310.28 55.04 1310.15 55.712 1309.9 56.336C1309.66 56.944 1309.27 57.472 1308.75 57.92C1308.23 58.368 1307.59 58.72 1306.8 58.976C1306.02 59.232 1305.09 59.36 1304.02 59.36C1303.6 59.36 1303.17 59.328 1302.72 59.264C1302.29 59.2 1301.88 59.12 1301.5 59.024C1301.11 58.928 1300.78 58.832 1300.49 58.736C1300.2 58.64 1299.99 58.56 1299.87 58.496L1300.3 56.552C1300.57 56.68 1301.02 56.848 1301.64 57.056C1302.28 57.264 1303.06 57.368 1303.97 57.368Z" fill="white"/>
<path d="M1479.23 45.8C1480.14 45.448 1481.03 45 1481.9 44.456C1482.76 43.896 1483.55 43.2 1484.27 42.368H1485.86V59H1483.62V45.464C1483.43 45.64 1483.19 45.824 1482.9 46.016C1482.63 46.208 1482.33 46.392 1481.99 46.568C1481.67 46.744 1481.33 46.912 1480.96 47.072C1480.61 47.232 1480.26 47.368 1479.93 47.48L1479.23 45.8ZM1492.78 45.8C1493.69 45.448 1494.58 45 1495.44 44.456C1496.31 43.896 1497.1 43.2 1497.82 42.368H1499.4V59H1497.17V45.464C1496.98 45.64 1496.74 45.824 1496.45 46.016C1496.18 46.208 1495.87 46.392 1495.54 46.568C1495.22 46.744 1494.87 46.912 1494.51 47.072C1494.15 47.232 1493.81 47.368 1493.47 47.48L1492.78 45.8Z" fill="white"/>
<path d="M1418.42 57.368C1419.85 57.368 1420.86 57.088 1421.47 56.528C1422.1 55.968 1422.41 55.216 1422.41 54.272C1422.41 53.664 1422.28 53.152 1422.02 52.736C1421.77 52.32 1421.43 51.992 1421.02 51.752C1420.6 51.496 1420.11 51.32 1419.55 51.224C1419.01 51.112 1418.45 51.056 1417.87 51.056H1417.3V49.232H1418.09C1418.49 49.232 1418.9 49.192 1419.31 49.112C1419.74 49.032 1420.14 48.888 1420.49 48.68C1420.84 48.472 1421.13 48.192 1421.35 47.84C1421.58 47.472 1421.69 47.016 1421.69 46.472C1421.69 46.024 1421.61 45.64 1421.45 45.32C1421.29 45 1421.07 44.736 1420.8 44.528C1420.54 44.32 1420.24 44.176 1419.89 44.096C1419.55 44 1419.19 43.952 1418.81 43.952C1418.04 43.952 1417.38 44.064 1416.84 44.288C1416.31 44.512 1415.86 44.744 1415.5 44.984L1414.63 43.28C1414.82 43.152 1415.06 43.016 1415.35 42.872C1415.66 42.712 1415.99 42.568 1416.36 42.44C1416.73 42.312 1417.12 42.208 1417.54 42.128C1417.97 42.032 1418.42 41.984 1418.88 41.984C1419.76 41.984 1420.52 42.096 1421.16 42.32C1421.8 42.528 1422.33 42.832 1422.74 43.232C1423.16 43.616 1423.47 44.08 1423.68 44.624C1423.89 45.152 1423.99 45.728 1423.99 46.352C1423.99 47.216 1423.74 47.96 1423.25 48.584C1422.75 49.192 1422.15 49.656 1421.45 49.976C1421.88 50.104 1422.3 50.288 1422.7 50.528C1423.1 50.768 1423.44 51.072 1423.73 51.44C1424.03 51.808 1424.27 52.232 1424.45 52.712C1424.64 53.192 1424.74 53.728 1424.74 54.32C1424.74 55.04 1424.61 55.712 1424.35 56.336C1424.11 56.944 1423.73 57.472 1423.2 57.92C1422.69 58.368 1422.04 58.72 1421.26 58.976C1420.47 59.232 1419.54 59.36 1418.47 59.36C1418.06 59.36 1417.62 59.328 1417.18 59.264C1416.74 59.2 1416.34 59.12 1415.95 59.024C1415.57 58.928 1415.23 58.832 1414.94 58.736C1414.66 58.64 1414.45 58.56 1414.32 58.496L1414.75 56.552C1415.02 56.68 1415.47 56.848 1416.1 57.056C1416.74 57.264 1417.51 57.368 1418.42 57.368ZM1427.75 50.672C1427.75 47.888 1428.23 45.744 1429.21 44.24C1430.2 42.736 1431.57 41.984 1433.31 41.984C1435.06 41.984 1436.42 42.736 1437.39 44.24C1438.39 45.744 1438.88 47.888 1438.88 50.672C1438.88 53.456 1438.39 55.6 1437.39 57.104C1436.42 58.608 1435.06 59.36 1433.31 59.36C1431.57 59.36 1430.2 58.608 1429.21 57.104C1428.23 55.6 1427.75 53.456 1427.75 50.672ZM1436.53 50.672C1436.53 49.76 1436.47 48.896 1436.36 48.08C1436.27 47.264 1436.09 46.552 1435.83 45.944C1435.59 45.336 1435.27 44.856 1434.85 44.504C1434.43 44.136 1433.92 43.952 1433.31 43.952C1432.71 43.952 1432.19 44.136 1431.78 44.504C1431.36 44.856 1431.03 45.336 1430.77 45.944C1430.53 46.552 1430.35 47.264 1430.24 48.08C1430.15 48.896 1430.1 49.76 1430.1 50.672C1430.1 51.584 1430.15 52.448 1430.24 53.264C1430.35 54.08 1430.53 54.792 1430.77 55.4C1431.03 56.008 1431.36 56.496 1431.78 56.864C1432.19 57.216 1432.71 57.392 1433.31 57.392C1433.92 57.392 1434.43 57.216 1434.85 56.864C1435.27 56.496 1435.59 56.008 1435.83 55.4C1436.09 54.792 1436.27 54.08 1436.36 53.264C1436.47 52.448 1436.53 51.584 1436.53 50.672Z" fill="white"/>
<path d="M1607.23 45.8C1608.14 45.448 1609.03 45 1609.9 44.456C1610.76 43.896 1611.55 43.2 1612.27 42.368H1613.86V59H1611.62V45.464C1611.43 45.64 1611.19 45.824 1610.9 46.016C1610.63 46.208 1610.33 46.392 1609.99 46.568C1609.67 46.744 1609.33 46.912 1608.96 47.072C1608.61 47.232 1608.26 47.368 1607.93 47.48L1607.23 45.8ZM1623.97 57.368C1625.39 57.368 1626.41 57.088 1627.02 56.528C1627.64 55.968 1627.95 55.216 1627.95 54.272C1627.95 53.664 1627.83 53.152 1627.57 52.736C1627.31 52.32 1626.98 51.992 1626.56 51.752C1626.15 51.496 1625.66 51.32 1625.1 51.224C1624.55 51.112 1623.99 51.056 1623.42 51.056H1622.84V49.232H1623.63C1624.03 49.232 1624.44 49.192 1624.86 49.112C1625.29 49.032 1625.68 48.888 1626.03 48.68C1626.39 48.472 1626.67 48.192 1626.9 47.84C1627.12 47.472 1627.23 47.016 1627.23 46.472C1627.23 46.024 1627.15 45.64 1626.99 45.32C1626.83 45 1626.62 44.736 1626.35 44.528C1626.09 44.32 1625.79 44.176 1625.43 44.096C1625.1 44 1624.74 43.952 1624.35 43.952C1623.59 43.952 1622.93 44.064 1622.39 44.288C1621.86 44.512 1621.41 44.744 1621.04 44.984L1620.18 43.28C1620.37 43.152 1620.61 43.016 1620.9 42.872C1621.2 42.712 1621.54 42.568 1621.91 42.44C1622.27 42.312 1622.67 42.208 1623.08 42.128C1623.51 42.032 1623.96 41.984 1624.43 41.984C1625.31 41.984 1626.07 42.096 1626.71 42.32C1627.35 42.528 1627.87 42.832 1628.29 43.232C1628.71 43.616 1629.02 44.08 1629.23 44.624C1629.43 45.152 1629.54 45.728 1629.54 46.352C1629.54 47.216 1629.29 47.96 1628.79 48.584C1628.3 49.192 1627.7 49.656 1626.99 49.976C1627.43 50.104 1627.84 50.288 1628.24 50.528C1628.64 50.768 1628.99 51.072 1629.27 51.44C1629.58 51.808 1629.82 52.232 1629.99 52.712C1630.19 53.192 1630.28 53.728 1630.28 54.32C1630.28 55.04 1630.15 55.712 1629.9 56.336C1629.66 56.944 1629.27 57.472 1628.75 57.92C1628.23 58.368 1627.59 58.72 1626.8 58.976C1626.02 59.232 1625.09 59.36 1624.02 59.36C1623.6 59.36 1623.17 59.328 1622.72 59.264C1622.29 59.2 1621.88 59.12 1621.5 59.024C1621.11 58.928 1620.78 58.832 1620.49 58.736C1620.2 58.64 1619.99 58.56 1619.87 58.496L1620.3 56.552C1620.57 56.68 1621.02 56.848 1621.64 57.056C1622.28 57.264 1623.06 57.368 1623.97 57.368Z" fill="white"/>
<path d="M1546.42 57.368C1547.85 57.368 1548.86 57.088 1549.47 56.528C1550.1 55.968 1550.41 55.216 1550.41 54.272C1550.41 53.664 1550.28 53.152 1550.02 52.736C1549.77 52.32 1549.43 51.992 1549.02 51.752C1548.6 51.496 1548.11 51.32 1547.55 51.224C1547.01 51.112 1546.45 51.056 1545.87 51.056H1545.3V49.232H1546.09C1546.49 49.232 1546.9 49.192 1547.31 49.112C1547.74 49.032 1548.14 48.888 1548.49 48.68C1548.84 48.472 1549.13 48.192 1549.35 47.84C1549.58 47.472 1549.69 47.016 1549.69 46.472C1549.69 46.024 1549.61 45.64 1549.45 45.32C1549.29 45 1549.07 44.736 1548.8 44.528C1548.54 44.32 1548.24 44.176 1547.89 44.096C1547.55 44 1547.19 43.952 1546.81 43.952C1546.04 43.952 1545.38 44.064 1544.84 44.288C1544.31 44.512 1543.86 44.744 1543.5 44.984L1542.63 43.28C1542.82 43.152 1543.06 43.016 1543.35 42.872C1543.66 42.712 1543.99 42.568 1544.36 42.44C1544.73 42.312 1545.12 42.208 1545.54 42.128C1545.97 42.032 1546.42 41.984 1546.88 41.984C1547.76 41.984 1548.52 42.096 1549.16 42.32C1549.8 42.528 1550.33 42.832 1550.74 43.232C1551.16 43.616 1551.47 44.08 1551.68 44.624C1551.89 45.152 1551.99 45.728 1551.99 46.352C1551.99 47.216 1551.74 47.96 1551.25 48.584C1550.75 49.192 1550.15 49.656 1549.45 49.976C1549.88 50.104 1550.3 50.288 1550.7 50.528C1551.1 50.768 1551.44 51.072 1551.73 51.44C1552.03 51.808 1552.27 52.232 1552.45 52.712C1552.64 53.192 1552.74 53.728 1552.74 54.32C1552.74 55.04 1552.61 55.712 1552.35 56.336C1552.11 56.944 1551.73 57.472 1551.2 57.92C1550.69 58.368 1550.04 58.72 1549.26 58.976C1548.47 59.232 1547.54 59.36 1546.47 59.36C1546.06 59.36 1545.62 59.328 1545.18 59.264C1544.74 59.2 1544.34 59.12 1543.95 59.024C1543.57 58.928 1543.23 58.832 1542.94 58.736C1542.66 58.64 1542.45 58.56 1542.32 58.496L1542.75 56.552C1543.02 56.68 1543.47 56.848 1544.1 57.056C1544.74 57.264 1545.51 57.368 1546.42 57.368ZM1556.06 52.328C1556.06 50.712 1556.28 49.288 1556.73 48.056C1557.18 46.808 1557.81 45.76 1558.63 44.912C1559.46 44.064 1560.46 43.424 1561.63 42.992C1562.81 42.544 1564.14 42.312 1565.61 42.296L1565.78 44.168C1564.83 44.184 1563.97 44.288 1563.19 44.48C1562.42 44.672 1561.73 44.976 1561.12 45.392C1560.51 45.808 1560 46.352 1559.59 47.024C1559.17 47.68 1558.86 48.496 1558.65 49.472C1559.07 49.28 1559.53 49.12 1560.04 48.992C1560.57 48.864 1561.11 48.8 1561.67 48.8C1562.62 48.8 1563.42 48.944 1564.07 49.232C1564.73 49.52 1565.27 49.904 1565.68 50.384C1566.1 50.848 1566.39 51.392 1566.57 52.016C1566.76 52.624 1566.86 53.264 1566.86 53.936C1566.86 54.544 1566.75 55.168 1566.55 55.808C1566.34 56.448 1566.02 57.032 1565.59 57.56C1565.17 58.088 1564.63 58.52 1563.98 58.856C1563.32 59.192 1562.55 59.36 1561.65 59.36C1559.83 59.36 1558.43 58.736 1557.47 57.488C1556.53 56.24 1556.06 54.52 1556.06 52.328ZM1561.43 50.624C1560.87 50.624 1560.35 50.68 1559.87 50.792C1559.39 50.888 1558.91 51.04 1558.43 51.248C1558.42 51.424 1558.4 51.608 1558.39 51.8C1558.39 51.976 1558.39 52.152 1558.39 52.328C1558.39 53.032 1558.43 53.696 1558.53 54.32C1558.63 54.944 1558.79 55.496 1559.03 55.976C1559.29 56.44 1559.63 56.816 1560.04 57.104C1560.46 57.376 1560.99 57.512 1561.63 57.512C1562.15 57.512 1562.6 57.4 1562.97 57.176C1563.34 56.952 1563.64 56.664 1563.88 56.312C1564.12 55.96 1564.29 55.584 1564.39 55.184C1564.5 54.768 1564.55 54.368 1564.55 53.984C1564.55 52.896 1564.29 52.064 1563.76 51.488C1563.25 50.912 1562.47 50.624 1561.43 50.624Z" fill="white"/>
<path d="M1734.51 52.328C1734.51 50.712 1734.74 49.288 1735.18 48.056C1735.63 46.808 1736.26 45.76 1737.08 44.912C1737.91 44.064 1738.91 43.424 1740.08 42.992C1741.26 42.544 1742.59 42.312 1744.06 42.296L1744.23 44.168C1743.29 44.184 1742.42 44.288 1741.64 44.48C1740.87 44.672 1740.18 44.976 1739.58 45.392C1738.97 45.808 1738.46 46.352 1738.04 47.024C1737.62 47.68 1737.31 48.496 1737.1 49.472C1737.52 49.28 1737.98 49.12 1738.5 48.992C1739.02 48.864 1739.57 48.8 1740.13 48.8C1741.07 48.8 1741.87 48.944 1742.53 49.232C1743.18 49.52 1743.72 49.904 1744.14 50.384C1744.55 50.848 1744.85 51.392 1745.02 52.016C1745.22 52.624 1745.31 53.264 1745.31 53.936C1745.31 54.544 1745.21 55.168 1745 55.808C1744.79 56.448 1744.47 57.032 1744.04 57.56C1743.62 58.088 1743.09 58.52 1742.43 58.856C1741.78 59.192 1741 59.36 1740.1 59.36C1738.28 59.36 1736.89 58.736 1735.93 57.488C1734.98 56.24 1734.51 54.52 1734.51 52.328ZM1739.89 50.624C1739.33 50.624 1738.81 50.68 1738.33 50.792C1737.85 50.888 1737.37 51.04 1736.89 51.248C1736.87 51.424 1736.86 51.608 1736.84 51.8C1736.84 51.976 1736.84 52.152 1736.84 52.328C1736.84 53.032 1736.89 53.696 1736.98 54.32C1737.08 54.944 1737.25 55.496 1737.49 55.976C1737.74 56.44 1738.08 56.816 1738.5 57.104C1738.91 57.376 1739.44 57.512 1740.08 57.512C1740.61 57.512 1741.06 57.4 1741.42 57.176C1741.79 56.952 1742.1 56.664 1742.34 56.312C1742.58 55.96 1742.74 55.584 1742.84 55.184C1742.95 54.768 1743.01 54.368 1743.01 53.984C1743.01 52.896 1742.74 52.064 1742.22 51.488C1741.7 50.912 1740.93 50.624 1739.89 50.624Z" fill="white"/>
<path d="M1680.21 46.616C1680.21 47.192 1680.09 47.752 1679.85 48.296C1679.62 48.824 1679.32 49.352 1678.94 49.88C1678.55 50.392 1678.12 50.904 1677.64 51.416C1677.16 51.912 1676.68 52.4 1676.2 52.88C1675.93 53.152 1675.61 53.472 1675.24 53.84C1674.89 54.208 1674.55 54.592 1674.23 54.992C1673.91 55.392 1673.64 55.776 1673.42 56.144C1673.21 56.512 1673.1 56.832 1673.1 57.104H1680.76V59H1670.68C1670.66 58.904 1670.66 58.808 1670.66 58.712C1670.66 58.616 1670.66 58.528 1670.66 58.448C1670.66 57.696 1670.78 57 1671.02 56.36C1671.27 55.704 1671.6 55.088 1672 54.512C1672.4 53.936 1672.85 53.392 1673.34 52.88C1673.84 52.368 1674.33 51.872 1674.81 51.392C1675.21 51.008 1675.58 50.632 1675.94 50.264C1676.3 49.88 1676.62 49.504 1676.9 49.136C1677.18 48.752 1677.41 48.36 1677.57 47.96C1677.74 47.56 1677.83 47.136 1677.83 46.688C1677.83 46.208 1677.75 45.8 1677.59 45.464C1677.45 45.128 1677.25 44.848 1676.99 44.624C1676.74 44.4 1676.43 44.24 1676.08 44.144C1675.74 44.032 1675.38 43.976 1675 43.976C1674.54 43.976 1674.11 44.04 1673.73 44.168C1673.34 44.296 1673 44.448 1672.7 44.624C1672.39 44.784 1672.14 44.96 1671.93 45.152C1671.72 45.328 1671.56 45.464 1671.45 45.56L1670.34 43.976C1670.49 43.816 1670.7 43.624 1670.99 43.4C1671.28 43.16 1671.62 42.936 1672.02 42.728C1672.42 42.52 1672.87 42.344 1673.37 42.2C1673.86 42.056 1674.4 41.984 1674.98 41.984C1676.72 41.984 1678.02 42.392 1678.89 43.208C1679.77 44.008 1680.21 45.144 1680.21 46.616ZM1686.46 59C1686.55 57.72 1686.78 56.376 1687.13 54.968C1687.5 53.544 1687.95 52.168 1688.47 50.84C1689 49.496 1689.58 48.256 1690.2 47.12C1690.84 45.968 1691.47 45.032 1692.07 44.312H1683.99V42.368H1694.57V44.216C1694.04 44.824 1693.46 45.664 1692.82 46.736C1692.18 47.792 1691.57 48.984 1690.99 50.312C1690.43 51.624 1689.95 53.032 1689.53 54.536C1689.13 56.024 1688.88 57.512 1688.79 59H1686.46Z" fill="white"/>
<path d="M1863.23 45.8C1864.14 45.448 1865.03 45 1865.9 44.456C1866.76 43.896 1867.55 43.2 1868.27 42.368H1869.86V59H1867.62V45.464C1867.43 45.64 1867.19 45.824 1866.9 46.016C1866.63 46.208 1866.33 46.392 1865.99 46.568C1865.67 46.744 1865.33 46.912 1864.96 47.072C1864.61 47.232 1864.26 47.368 1863.93 47.48L1863.23 45.8ZM1878.46 59C1878.55 57.72 1878.78 56.376 1879.13 54.968C1879.5 53.544 1879.95 52.168 1880.47 50.84C1881 49.496 1881.58 48.256 1882.2 47.12C1882.84 45.968 1883.47 45.032 1884.07 44.312H1875.99V42.368H1886.57V44.216C1886.04 44.824 1885.46 45.664 1884.82 46.736C1884.18 47.792 1883.57 48.984 1882.99 50.312C1882.43 51.624 1881.95 53.032 1881.53 54.536C1881.13 56.024 1880.88 57.512 1880.79 59H1878.46Z" fill="white"/>
<path d="M1802.42 57.368C1803.85 57.368 1804.86 57.088 1805.47 56.528C1806.1 55.968 1806.41 55.216 1806.41 54.272C1806.41 53.664 1806.28 53.152 1806.02 52.736C1805.77 52.32 1805.43 51.992 1805.02 51.752C1804.6 51.496 1804.11 51.32 1803.55 51.224C1803.01 51.112 1802.45 51.056 1801.87 51.056H1801.3V49.232H1802.09C1802.49 49.232 1802.9 49.192 1803.31 49.112C1803.74 49.032 1804.14 48.888 1804.49 48.68C1804.84 48.472 1805.13 48.192 1805.35 47.84C1805.58 47.472 1805.69 47.016 1805.69 46.472C1805.69 46.024 1805.61 45.64 1805.45 45.32C1805.29 45 1805.07 44.736 1804.8 44.528C1804.54 44.32 1804.24 44.176 1803.89 44.096C1803.55 44 1803.19 43.952 1802.81 43.952C1802.04 43.952 1801.38 44.064 1800.84 44.288C1800.31 44.512 1799.86 44.744 1799.5 44.984L1798.63 43.28C1798.82 43.152 1799.06 43.016 1799.35 42.872C1799.66 42.712 1799.99 42.568 1800.36 42.44C1800.73 42.312 1801.12 42.208 1801.54 42.128C1801.97 42.032 1802.42 41.984 1802.88 41.984C1803.76 41.984 1804.52 42.096 1805.16 42.32C1805.8 42.528 1806.33 42.832 1806.74 43.232C1807.16 43.616 1807.47 44.08 1807.68 44.624C1807.89 45.152 1807.99 45.728 1807.99 46.352C1807.99 47.216 1807.74 47.96 1807.25 48.584C1806.75 49.192 1806.15 49.656 1805.45 49.976C1805.88 50.104 1806.3 50.288 1806.7 50.528C1807.1 50.768 1807.44 51.072 1807.73 51.44C1808.03 51.808 1808.27 52.232 1808.45 52.712C1808.64 53.192 1808.74 53.728 1808.74 54.32C1808.74 55.04 1808.61 55.712 1808.35 56.336C1808.11 56.944 1807.73 57.472 1807.2 57.92C1806.69 58.368 1806.04 58.72 1805.26 58.976C1804.47 59.232 1803.54 59.36 1802.47 59.36C1802.06 59.36 1801.62 59.328 1801.18 59.264C1800.74 59.2 1800.34 59.12 1799.95 59.024C1799.57 58.928 1799.23 58.832 1798.94 58.736C1798.66 58.64 1798.45 58.56 1798.32 58.496L1798.75 56.552C1799.02 56.68 1799.47 56.848 1800.1 57.056C1800.74 57.264 1801.51 57.368 1802.42 57.368ZM1811.51 53.24C1811.81 52.536 1812.23 51.72 1812.75 50.792C1813.28 49.848 1813.87 48.88 1814.53 47.888C1815.2 46.896 1815.91 45.92 1816.67 44.96C1817.43 44 1818.2 43.136 1818.97 42.368H1821.11V52.928H1823.07V54.752H1821.11V59H1818.95V54.752H1811.51V53.24ZM1818.95 45.008C1818.47 45.52 1817.98 46.096 1817.48 46.736C1817 47.36 1816.53 48.016 1816.07 48.704C1815.6 49.392 1815.16 50.096 1814.75 50.816C1814.35 51.536 1813.99 52.24 1813.67 52.928H1818.95V45.008Z" fill="white"/>
<path d="M2000.21 46.616C2000.21 47.192 2000.09 47.752 1999.85 48.296C1999.62 48.824 1999.32 49.352 1998.94 49.88C1998.55 50.392 1998.12 50.904 1997.64 51.416C1997.16 51.912 1996.68 52.4 1996.2 52.88C1995.93 53.152 1995.61 53.472 1995.24 53.84C1994.89 54.208 1994.55 54.592 1994.23 54.992C1993.91 55.392 1993.64 55.776 1993.42 56.144C1993.21 56.512 1993.1 56.832 1993.1 57.104H2000.76V59H1990.68C1990.66 58.904 1990.66 58.808 1990.66 58.712C1990.66 58.616 1990.66 58.528 1990.66 58.448C1990.66 57.696 1990.78 57 1991.02 56.36C1991.27 55.704 1991.6 55.088 1992 54.512C1992.4 53.936 1992.85 53.392 1993.34 52.88C1993.84 52.368 1994.33 51.872 1994.81 51.392C1995.21 51.008 1995.58 50.632 1995.94 50.264C1996.3 49.88 1996.62 49.504 1996.9 49.136C1997.18 48.752 1997.41 48.36 1997.57 47.96C1997.74 47.56 1997.83 47.136 1997.83 46.688C1997.83 46.208 1997.75 45.8 1997.59 45.464C1997.45 45.128 1997.25 44.848 1996.99 44.624C1996.74 44.4 1996.43 44.24 1996.08 44.144C1995.74 44.032 1995.38 43.976 1995 43.976C1994.54 43.976 1994.11 44.04 1993.73 44.168C1993.34 44.296 1993 44.448 1992.7 44.624C1992.39 44.784 1992.14 44.96 1991.93 45.152C1991.72 45.328 1991.56 45.464 1991.45 45.56L1990.34 43.976C1990.49 43.816 1990.7 43.624 1990.99 43.4C1991.28 43.16 1991.62 42.936 1992.02 42.728C1992.42 42.52 1992.87 42.344 1993.37 42.2C1993.86 42.056 1994.4 41.984 1994.98 41.984C1996.72 41.984 1998.02 42.392 1998.89 43.208C1999.77 44.008 2000.21 45.144 2000.21 46.616Z" fill="white"/>
<path d="M1936.21 46.616C1936.21 47.192 1936.09 47.752 1935.85 48.296C1935.62 48.824 1935.32 49.352 1934.94 49.88C1934.55 50.392 1934.12 50.904 1933.64 51.416C1933.16 51.912 1932.68 52.4 1932.2 52.88C1931.93 53.152 1931.61 53.472 1931.24 53.84C1930.89 54.208 1930.55 54.592 1930.23 54.992C1929.91 55.392 1929.64 55.776 1929.42 56.144C1929.21 56.512 1929.1 56.832 1929.1 57.104H1936.76V59H1926.68C1926.66 58.904 1926.66 58.808 1926.66 58.712C1926.66 58.616 1926.66 58.528 1926.66 58.448C1926.66 57.696 1926.78 57 1927.02 56.36C1927.27 55.704 1927.6 55.088 1928 54.512C1928.4 53.936 1928.85 53.392 1929.34 52.88C1929.84 52.368 1930.33 51.872 1930.81 51.392C1931.21 51.008 1931.58 50.632 1931.94 50.264C1932.3 49.88 1932.62 49.504 1932.9 49.136C1933.18 48.752 1933.41 48.36 1933.57 47.96C1933.74 47.56 1933.83 47.136 1933.83 46.688C1933.83 46.208 1933.75 45.8 1933.59 45.464C1933.45 45.128 1933.25 44.848 1932.99 44.624C1932.74 44.4 1932.43 44.24 1932.08 44.144C1931.74 44.032 1931.38 43.976 1931 43.976C1930.54 43.976 1930.11 44.04 1929.73 44.168C1929.34 44.296 1929 44.448 1928.7 44.624C1928.39 44.784 1928.14 44.96 1927.93 45.152C1927.72 45.328 1927.56 45.464 1927.45 45.56L1926.34 43.976C1926.49 43.816 1926.7 43.624 1926.99 43.4C1927.28 43.16 1927.62 42.936 1928.02 42.728C1928.42 42.52 1928.87 42.344 1929.37 42.2C1929.86 42.056 1930.4 41.984 1930.98 41.984C1932.72 41.984 1934.02 42.392 1934.89 43.208C1935.77 44.008 1936.21 45.144 1936.21 46.616ZM1943.32 48.776C1945.74 48.872 1947.51 49.4 1948.63 50.36C1949.76 51.32 1950.33 52.624 1950.33 54.272C1950.33 55.008 1950.2 55.688 1949.95 56.312C1949.71 56.936 1949.33 57.472 1948.82 57.92C1948.32 58.368 1947.69 58.72 1946.92 58.976C1946.15 59.232 1945.24 59.36 1944.19 59.36C1943.77 59.36 1943.35 59.328 1942.91 59.264C1942.48 59.2 1942.08 59.12 1941.71 59.024C1941.35 58.928 1941.02 58.832 1940.73 58.736C1940.44 58.64 1940.23 58.56 1940.11 58.496L1940.54 56.552C1940.81 56.68 1941.25 56.848 1941.86 57.056C1942.48 57.264 1943.24 57.368 1944.14 57.368C1944.86 57.368 1945.46 57.288 1945.94 57.128C1946.43 56.968 1946.83 56.752 1947.14 56.48C1947.44 56.208 1947.66 55.896 1947.79 55.544C1947.93 55.176 1948 54.792 1948 54.392C1948 53.784 1947.9 53.248 1947.69 52.784C1947.48 52.304 1947.11 51.904 1946.59 51.584C1946.06 51.264 1945.35 51.024 1944.47 50.864C1943.59 50.688 1942.48 50.6 1941.14 50.6C1941.23 49.816 1941.31 49.08 1941.35 48.392C1941.42 47.704 1941.47 47.032 1941.52 46.376C1941.57 45.72 1941.61 45.072 1941.64 44.432C1941.67 43.776 1941.71 43.088 1941.74 42.368H1949.75V44.264H1943.68C1943.67 44.504 1943.64 44.832 1943.61 45.248C1943.58 45.648 1943.55 46.072 1943.51 46.52C1943.48 46.952 1943.45 47.376 1943.42 47.792C1943.39 48.208 1943.35 48.536 1943.32 48.776Z" fill="white"/>
<path d="M2064.21 46.616C2064.21 47.192 2064.09 47.752 2063.85 48.296C2063.62 48.824 2063.32 49.352 2062.94 49.88C2062.55 50.392 2062.12 50.904 2061.64 51.416C2061.16 51.912 2060.68 52.4 2060.2 52.88C2059.93 53.152 2059.61 53.472 2059.24 53.84C2058.89 54.208 2058.55 54.592 2058.23 54.992C2057.91 55.392 2057.64 55.776 2057.42 56.144C2057.21 56.512 2057.1 56.832 2057.1 57.104H2064.76V59H2054.68C2054.66 58.904 2054.66 58.808 2054.66 58.712C2054.66 58.616 2054.66 58.528 2054.66 58.448C2054.66 57.696 2054.78 57 2055.02 56.36C2055.27 55.704 2055.6 55.088 2056 54.512C2056.4 53.936 2056.85 53.392 2057.34 52.88C2057.84 52.368 2058.33 51.872 2058.81 51.392C2059.21 51.008 2059.58 50.632 2059.94 50.264C2060.3 49.88 2060.62 49.504 2060.9 49.136C2061.18 48.752 2061.41 48.36 2061.57 47.96C2061.74 47.56 2061.83 47.136 2061.83 46.688C2061.83 46.208 2061.75 45.8 2061.59 45.464C2061.45 45.128 2061.25 44.848 2060.99 44.624C2060.74 44.4 2060.43 44.24 2060.08 44.144C2059.74 44.032 2059.38 43.976 2059 43.976C2058.54 43.976 2058.11 44.04 2057.73 44.168C2057.34 44.296 2057 44.448 2056.7 44.624C2056.39 44.784 2056.14 44.96 2055.93 45.152C2055.72 45.328 2055.56 45.464 2055.45 45.56L2054.34 43.976C2054.49 43.816 2054.7 43.624 2054.99 43.4C2055.28 43.16 2055.62 42.936 2056.02 42.728C2056.42 42.52 2056.87 42.344 2057.37 42.2C2057.86 42.056 2058.4 41.984 2058.98 41.984C2060.72 41.984 2062.02 42.392 2062.89 43.208C2063.77 44.008 2064.21 45.144 2064.21 46.616ZM2068.78 45.8C2069.69 45.448 2070.58 45 2071.44 44.456C2072.31 43.896 2073.1 43.2 2073.82 42.368H2075.4V59H2073.17V45.464C2072.98 45.64 2072.74 45.824 2072.45 46.016C2072.18 46.208 2071.87 46.392 2071.54 46.568C2071.22 46.744 2070.87 46.912 2070.51 47.072C2070.15 47.232 2069.81 47.368 2069.47 47.48L2068.78 45.8Z" fill="white"/>
<path d="M2183.23 45.8C2184.14 45.448 2185.03 45 2185.9 44.456C2186.76 43.896 2187.55 43.2 2188.27 42.368H2189.86V59H2187.62V45.464C2187.43 45.64 2187.19 45.824 2186.9 46.016C2186.63 46.208 2186.33 46.392 2185.99 46.568C2185.67 46.744 2185.33 46.912 2184.96 47.072C2184.61 47.232 2184.26 47.368 2183.93 47.48L2183.23 45.8ZM2206.57 49.016C2206.57 52.312 2205.75 54.808 2204.1 56.504C2202.47 58.184 2200.03 59.032 2196.8 59.048L2196.73 57.176C2197.74 57.176 2198.64 57.08 2199.44 56.888C2200.26 56.696 2200.97 56.392 2201.58 55.976C2202.19 55.544 2202.69 54.992 2203.09 54.32C2203.51 53.648 2203.81 52.824 2204 51.848C2203.59 52.04 2203.11 52.2 2202.59 52.328C2202.06 52.44 2201.51 52.496 2200.95 52.496C2200.01 52.496 2199.21 52.36 2198.55 52.088C2197.9 51.8 2197.36 51.424 2196.95 50.96C2196.53 50.48 2196.23 49.936 2196.03 49.328C2195.86 48.704 2195.77 48.056 2195.77 47.384C2195.77 46.792 2195.87 46.176 2196.08 45.536C2196.29 44.896 2196.6 44.312 2197.02 43.784C2197.45 43.256 2197.99 42.824 2198.65 42.488C2199.31 42.152 2200.08 41.984 2200.98 41.984C2201.89 41.984 2202.69 42.144 2203.38 42.464C2204.08 42.784 2204.67 43.248 2205.13 43.856C2205.61 44.464 2205.97 45.208 2206.21 46.088C2206.45 46.952 2206.57 47.928 2206.57 49.016ZM2201.19 50.672C2201.75 50.672 2202.28 50.624 2202.78 50.528C2203.27 50.416 2203.75 50.256 2204.22 50.048C2204.23 49.872 2204.24 49.704 2204.24 49.544C2204.24 49.368 2204.24 49.192 2204.24 49.016C2204.24 48.328 2204.19 47.672 2204.1 47.048C2204 46.408 2203.83 45.856 2203.57 45.392C2203.33 44.912 2203 44.536 2202.59 44.264C2202.17 43.976 2201.64 43.832 2201 43.832C2200.47 43.832 2200.03 43.944 2199.66 44.168C2199.29 44.392 2198.99 44.68 2198.75 45.032C2198.51 45.368 2198.33 45.744 2198.22 46.16C2198.12 46.56 2198.07 46.952 2198.07 47.336C2198.07 48.424 2198.33 49.256 2198.84 49.832C2199.37 50.392 2200.15 50.672 2201.19 50.672Z" fill="white"/>
<path d="M2117.96 53.24C2118.26 52.536 2118.68 51.72 2119.21 50.792C2119.74 49.848 2120.33 48.88 2120.98 47.888C2121.66 46.896 2122.37 45.92 2123.12 44.96C2123.89 44 2124.66 43.136 2125.42 42.368H2127.56V52.928H2129.53V54.752H2127.56V59H2125.4V54.752H2117.96V53.24ZM2125.4 45.008C2124.92 45.52 2124.43 46.096 2123.94 46.736C2123.46 47.36 2122.98 48.016 2122.52 48.704C2122.06 49.392 2121.62 50.096 2121.2 50.816C2120.8 51.536 2120.44 52.24 2120.12 52.928H2125.4V45.008Z" fill="white"/>
<path d="M2314.42 57.368C2315.85 57.368 2316.86 57.088 2317.47 56.528C2318.1 55.968 2318.41 55.216 2318.41 54.272C2318.41 53.664 2318.28 53.152 2318.02 52.736C2317.77 52.32 2317.43 51.992 2317.02 51.752C2316.6 51.496 2316.11 51.32 2315.55 51.224C2315.01 51.112 2314.45 51.056 2313.87 51.056H2313.3V49.232H2314.09C2314.49 49.232 2314.9 49.192 2315.31 49.112C2315.74 49.032 2316.14 48.888 2316.49 48.68C2316.84 48.472 2317.13 48.192 2317.35 47.84C2317.58 47.472 2317.69 47.016 2317.69 46.472C2317.69 46.024 2317.61 45.64 2317.45 45.32C2317.29 45 2317.07 44.736 2316.8 44.528C2316.54 44.32 2316.24 44.176 2315.89 44.096C2315.55 44 2315.19 43.952 2314.81 43.952C2314.04 43.952 2313.38 44.064 2312.84 44.288C2312.31 44.512 2311.86 44.744 2311.5 44.984L2310.63 43.28C2310.82 43.152 2311.06 43.016 2311.35 42.872C2311.66 42.712 2311.99 42.568 2312.36 42.44C2312.73 42.312 2313.12 42.208 2313.54 42.128C2313.97 42.032 2314.42 41.984 2314.88 41.984C2315.76 41.984 2316.52 42.096 2317.16 42.32C2317.8 42.528 2318.33 42.832 2318.74 43.232C2319.16 43.616 2319.47 44.08 2319.68 44.624C2319.89 45.152 2319.99 45.728 2319.99 46.352C2319.99 47.216 2319.74 47.96 2319.25 48.584C2318.75 49.192 2318.15 49.656 2317.45 49.976C2317.88 50.104 2318.3 50.288 2318.7 50.528C2319.1 50.768 2319.44 51.072 2319.73 51.44C2320.03 51.808 2320.27 52.232 2320.45 52.712C2320.64 53.192 2320.74 53.728 2320.74 54.32C2320.74 55.04 2320.61 55.712 2320.35 56.336C2320.11 56.944 2319.73 57.472 2319.2 57.92C2318.69 58.368 2318.04 58.72 2317.26 58.976C2316.47 59.232 2315.54 59.36 2314.47 59.36C2314.06 59.36 2313.62 59.328 2313.18 59.264C2312.74 59.2 2312.34 59.12 2311.95 59.024C2311.57 58.928 2311.23 58.832 2310.94 58.736C2310.66 58.64 2310.45 58.56 2310.32 58.496L2310.75 56.552C2311.02 56.68 2311.47 56.848 2312.1 57.056C2312.74 57.264 2313.51 57.368 2314.42 57.368ZM2333.75 46.616C2333.75 47.192 2333.63 47.752 2333.39 48.296C2333.17 48.824 2332.87 49.352 2332.48 49.88C2332.1 50.392 2331.67 50.904 2331.19 51.416C2330.71 51.912 2330.23 52.4 2329.75 52.88C2329.47 53.152 2329.15 53.472 2328.79 53.84C2328.43 54.208 2328.1 54.592 2327.78 54.992C2327.46 55.392 2327.19 55.776 2326.96 56.144C2326.75 56.512 2326.65 56.832 2326.65 57.104H2334.31V59H2324.23C2324.21 58.904 2324.2 58.808 2324.2 58.712C2324.2 58.616 2324.2 58.528 2324.2 58.448C2324.2 57.696 2324.32 57 2324.56 56.36C2324.82 55.704 2325.15 55.088 2325.55 54.512C2325.95 53.936 2326.39 53.392 2326.89 52.88C2327.39 52.368 2327.87 51.872 2328.35 51.392C2328.75 51.008 2329.13 50.632 2329.48 50.264C2329.85 49.88 2330.17 49.504 2330.44 49.136C2330.73 48.752 2330.95 48.36 2331.11 47.96C2331.29 47.56 2331.38 47.136 2331.38 46.688C2331.38 46.208 2331.3 45.8 2331.14 45.464C2330.99 45.128 2330.79 44.848 2330.54 44.624C2330.28 44.4 2329.98 44.24 2329.63 44.144C2329.29 44.032 2328.93 43.976 2328.55 43.976C2328.08 43.976 2327.66 44.04 2327.27 44.168C2326.89 44.296 2326.55 44.448 2326.24 44.624C2325.94 44.784 2325.68 44.96 2325.47 45.152C2325.27 45.328 2325.11 45.464 2324.99 45.56L2323.89 43.976C2324.03 43.816 2324.25 43.624 2324.54 43.4C2324.83 43.16 2325.17 42.936 2325.57 42.728C2325.97 42.52 2326.42 42.344 2326.91 42.2C2327.41 42.056 2327.95 41.984 2328.52 41.984C2330.27 41.984 2331.57 42.392 2332.43 43.208C2333.31 44.008 2333.75 45.144 2333.75 46.616Z" fill="white"/>
<path d="M2247.23 45.8C2248.14 45.448 2249.03 45 2249.9 44.456C2250.76 43.896 2251.55 43.2 2252.27 42.368H2253.86V59H2251.62V45.464C2251.43 45.64 2251.19 45.824 2250.9 46.016C2250.63 46.208 2250.33 46.392 2249.99 46.568C2249.67 46.744 2249.33 46.912 2248.96 47.072C2248.61 47.232 2248.26 47.368 2247.93 47.48L2247.23 45.8ZM2263.32 48.776C2265.74 48.872 2267.51 49.4 2268.63 50.36C2269.76 51.32 2270.33 52.624 2270.33 54.272C2270.33 55.008 2270.2 55.688 2269.95 56.312C2269.71 56.936 2269.33 57.472 2268.82 57.92C2268.32 58.368 2267.69 58.72 2266.92 58.976C2266.15 59.232 2265.24 59.36 2264.19 59.36C2263.77 59.36 2263.35 59.328 2262.91 59.264C2262.48 59.2 2262.08 59.12 2261.71 59.024C2261.35 58.928 2261.02 58.832 2260.73 58.736C2260.44 58.64 2260.23 58.56 2260.11 58.496L2260.54 56.552C2260.81 56.68 2261.25 56.848 2261.86 57.056C2262.48 57.264 2263.24 57.368 2264.14 57.368C2264.86 57.368 2265.46 57.288 2265.94 57.128C2266.43 56.968 2266.83 56.752 2267.14 56.48C2267.44 56.208 2267.66 55.896 2267.79 55.544C2267.93 55.176 2268 54.792 2268 54.392C2268 53.784 2267.9 53.248 2267.69 52.784C2267.48 52.304 2267.11 51.904 2266.59 51.584C2266.06 51.264 2265.35 51.024 2264.47 50.864C2263.59 50.688 2262.48 50.6 2261.14 50.6C2261.23 49.816 2261.31 49.08 2261.35 48.392C2261.42 47.704 2261.47 47.032 2261.52 46.376C2261.57 45.72 2261.61 45.072 2261.64 44.432C2261.67 43.776 2261.71 43.088 2261.74 42.368H2269.75V44.264H2263.68C2263.67 44.504 2263.64 44.832 2263.61 45.248C2263.58 45.648 2263.55 46.072 2263.51 46.52C2263.48 46.952 2263.45 47.376 2263.42 47.792C2263.39 48.208 2263.35 48.536 2263.32 48.776Z" fill="white"/>
</svg>
